<?xml version="1.0" encoding="UTF-8" standalone="no"?><!DOCTYPE svg PUBLIC "-//W3C//DTD SVG 1.1//EN" "http://www.w3.org/Graphics/SVG/1.1/DTD/svg11.dtd"><svg width="100%" height="100%" viewBox="0 0 5334 2094" version="1.1" xmlns="http://www.w3.org/2000/svg" xmlns:xlink="http://www.w3.org/1999/xlink" xml:space="preserve" xmlns:serif="http://www.serif.com/" style="fill-rule:evenodd;clip-rule:evenodd;stroke-linejoin:round;stroke-miterlimit:2;"><g><path d="M4328.82,1913.4l-337.214,7.718l-317.207,-16.886l-76.591,-22.082l200.258,-85.096l234.346,-63.961l170.561,-12.328l131.703,-181.661l91.406,-321.113l147.494,-284.663l80.772,-304.645l23.47,-65.294l1.224,-49.473l65.256,-37.357l70.841,66.933l121.013,33.203l105.837,-5.986l101.173,-94.497l127.157,-149.916l20.269,-156.446l-12.822,-83.657l-31.938,-72.148l42.919,-12.11l149.618,94.58l370.098,1914.04l-1695.53,25l215.888,-122.155Z" style="fill:url(#_Linear1);"/><clipPath id="_clip2"><path d="M4328.82,1913.4l-337.214,7.718l-317.207,-16.886l-76.591,-22.082l200.258,-85.096l234.346,-63.961l170.561,-12.328l131.703,-181.661l91.406,-321.113l147.494,-284.663l80.772,-304.645l23.47,-65.294l1.224,-49.473l65.256,-37.357l70.841,66.933l121.013,33.203l105.837,-5.986l101.173,-94.497l127.157,-149.916l20.269,-156.446l-12.822,-83.657l-31.938,-72.148l42.919,-12.11l149.618,94.58l370.098,1914.04l-1695.53,25l215.888,-122.155Z"/></clipPath><g clip-path="url(#_clip2)"><path d="M4191.67,2056.25l-1022.92,-135.417l979.167,-272.916l132.446,-33.886c141.265,-12.397 97.832,182.07 157.006,199.918l158.464,-145.199l-267.008,244.655l-72.255,40.884c-0,-0 259.509,12.911 414.263,56.271c154.754,43.36 -479.166,45.69 -479.166,45.69Z" style="fill:#212518;"/><path d="M4744.3,476.564l11.947,60.936l45.833,75l131.25,50l31.25,227.083l-54.166,87.5l233.333,-18.75l-20.833,-133.333l145.833,-152.083l64.583,237.5l-102.083,260.416l102.083,618.75l347.917,-1464.58l-392.498,-323.06l84.165,268.893l-70.834,243.75l-162.5,122.917l-97.589,-66.786l-70.05,3.962l-227.641,-98.112Z" style="fill:#0a0c0f;fill-opacity:0.5;"/><path d="M4437.37,1813.95l12.287,-113.292l85.761,-64.277l51.112,-58.334l3.054,-109.296l113.558,-19.214l189.945,-9.953l-80.586,100.963l-375.131,273.403Z" style="fill:#0a0c0f;fill-opacity:0.5;"/><path d="M4280.77,1613.46l79.642,-661.38l318.63,-438.162l65.256,-37.357l-41.162,44.269l9.359,39.584l-47.273,114.91l0,176.956l-23.56,64.384l40.538,66.325l-113.455,123.258l-64.583,16.667l-12.5,27.083l12.5,13.942l-102.084,258.975l-18.75,112.5l-21.995,53.557l-80.563,24.489Z" style="fill:#ede8e2;fill-opacity:0.3;"/><path d="M5064.36,549.821l181.47,-535.771l20.203,-5.7l48.346,163.397l-17.704,137.726l16.124,24.657l-32.625,10.738l-36.104,51.255l-133.892,139.903l-45.818,13.795Z" style="fill:#ede8e2;fill-opacity:0.3;"/><path d="M4328.82,1913.4l108.544,-99.456l375.131,-273.403l80.586,-100.963l67.13,-167.836l113.545,-91.441l74.457,3.824l-68.041,14.904l-84.021,82.506l-58.869,74.71l-76.357,193.433l-286.389,191.773l-87.742,107.584l-112.155,50.57l-45.819,13.795Z" style="fill:#ede8e2;fill-opacity:0.3;"/></g><g><g><path d="M4186.77,1784.62l2.189,-7.114l-4.652,1.368l0.274,-1.641l-3.557,1.641l0.547,-1.094l-2.189,0.547l-3.283,-0.547l3.283,-1.642l-1.641,-0.821l6.019,-1.915l-2.189,-0.821l2.463,-0.82l2.189,-1.095l-4.652,0.274l3.01,-2.189l-2.463,0.547l-3.556,0.821l1.915,-2.189l-1.095,-0.821l4.652,-2.462l-1.642,-0l2.463,-1.368l-4.105,-0.821l1.642,-0.547l-1.915,-1.095l3.557,-1.915l-1.916,-0.547l2.737,-1.915l1.641,-1.095l-1.915,-0.547l-1.368,-1.641l1.368,-0.274l1.642,0l-0.274,-3.01l1.915,1.095l0.402,-0.86l-0.716,-1.586l1.135,0.257l-0,-1.642l1.094,0.821l0.548,-1.368l0.547,1.915l1.368,0.274l-0.547,0.821l1.094,0.273l1.368,-0.273l-1.094,1.094l1.094,0.547l0.547,-1.094l-0.547,2.189l1.915,-0.821l-1.368,1.915l1.368,-0.547l-1.094,1.915l0.547,0.821l2.189,-1.094l-1.368,1.641l1.915,0.547l-1.642,0.274l-1.368,1.094l1.642,0.548l2.462,1.641l-2.188,-0.273l1.915,1.094l-1.095,0.274l1.095,2.462l-2.189,-0.274l4.651,1.642l-1.915,0.547l3.557,0.821l-4.651,0.274l1.368,0.547l-3.01,0.821l-1.915,1.368l3.83,0.273l-1.094,1.095l3.557,-1.095l-1.368,1.916l7.934,0.547l-5.472,2.189l4.104,-0l-2.736,1.641l-1.368,0l2.189,1.368l-6.019,0l1.915,1.368l-5.746,-1.368l0.547,1.642l-1.641,-0.547l0.821,5.472l-1.642,-0.821l-0.547,0.547l-1.095,-0.821l-0.82,0.821l-0.821,-0.547l-1.095,0.547l-0.82,0.821l-0.821,-0Z" style="fill:url(#_Radial3);"/></g><g><path d="M4144.2,1755.3l1.765,-5.736l-3.75,1.103l0.22,-1.324l-2.868,1.324l0.442,-0.883l-1.765,0.441l-2.648,-0.441l2.648,-1.324l-1.324,-0.661l4.854,-1.545l-1.765,-0.662l1.985,-0.662l1.765,-0.882l-3.75,0.221l2.426,-1.765l-1.985,0.441l-2.868,0.662l1.544,-1.765l-0.882,-0.662l3.75,-1.986l-1.323,0l1.985,-1.103l-3.309,-0.662l1.324,-0.441l-1.545,-0.882l2.868,-1.545l-1.544,-0.441l2.206,-1.544l1.324,-0.883l-1.545,-0.441l-1.103,-1.324l1.103,-0.221l1.324,0l-0.22,-2.426l1.544,0.882l0.324,-0.693l-0.577,-1.279l0.915,0.207l-0,-1.324l0.882,0.662l0.442,-1.103l0.441,1.544l1.103,0.221l-0.441,0.662l0.882,0.221l1.103,-0.221l-0.882,0.882l0.882,0.442l0.442,-0.883l-0.442,1.765l1.545,-0.662l-1.103,1.545l1.103,-0.442l-0.883,1.545l0.441,0.662l1.765,-0.883l-1.103,1.324l1.545,0.441l-1.324,0.221l-1.103,0.882l1.324,0.442l1.985,1.323l-1.765,-0.22l1.545,0.882l-0.883,0.221l0.883,1.985l-1.765,-0.22l3.75,1.323l-1.544,0.442l2.868,0.662l-3.751,0.22l1.103,0.441l-2.426,0.662l-1.545,1.103l3.089,0.221l-0.883,0.883l2.868,-0.883l-1.103,1.544l6.398,0.442l-4.412,1.765l3.309,-0l-2.206,1.323l-1.103,0l1.765,1.104l-4.854,-0l1.545,1.103l-4.633,-1.103l0.441,1.323l-1.324,-0.441l0.662,4.412l-1.324,-0.661l-0.441,0.441l-0.883,-0.662l-0.661,0.662l-0.662,-0.441l-0.883,0.441l-0.662,0.662l-0.662,-0Z" style="fill:url(#_Radial4);"/></g><g><path d="M4300.16,1790.28l1.909,-6.202l-4.056,1.193l0.239,-1.432l-3.101,1.432l0.477,-0.954l-1.909,0.477l-2.862,-0.477l2.862,-1.432l-1.431,-0.715l5.248,-1.67l-1.908,-0.716l2.147,-0.716l1.908,-0.954l-4.055,0.239l2.624,-1.909l-2.147,0.477l-3.101,0.716l1.67,-1.908l-0.955,-0.716l4.056,-2.147l-1.432,-0l2.147,-1.193l-3.578,-0.716l1.431,-0.477l-1.669,-0.954l3.101,-1.67l-1.67,-0.477l2.385,-1.67l1.432,-0.954l-1.67,-0.477l-1.193,-1.431l1.193,-0.239l1.431,-0l-0.238,-2.624l1.67,0.954l0.35,-0.75l-0.624,-1.383l0.989,0.225l0,-1.432l0.954,0.716l0.478,-1.193l0.477,1.67l1.192,0.239l-0.477,0.715l0.955,0.239l1.192,-0.239l-0.954,0.955l0.954,0.477l0.477,-0.955l-0.477,1.909l1.67,-0.716l-1.193,1.67l1.193,-0.477l-0.954,1.67l0.477,0.716l1.909,-0.955l-1.193,1.432l1.67,0.477l-1.432,0.238l-1.192,0.955l1.431,0.477l2.147,1.431l-1.909,-0.239l1.67,0.955l-0.954,0.238l0.954,2.147l-1.908,-0.238l4.055,1.431l-1.67,0.477l3.102,0.716l-4.056,0.238l1.193,0.477l-2.624,0.716l-1.67,1.193l3.34,0.238l-0.954,0.955l3.101,-0.955l-1.193,1.67l6.918,0.477l-4.771,1.909l3.578,-0l-2.385,1.431l-1.193,0l1.908,1.193l-5.248,0l1.67,1.193l-5.01,-1.193l0.478,1.431l-1.432,-0.477l0.716,4.771l-1.431,-0.715l-0.478,0.477l-0.954,-0.716l-0.715,0.716l-0.716,-0.477l-0.954,0.477l-0.716,0.715l-0.716,0Z" style="fill:url(#_Radial5);"/></g><g><path d="M4205.52,1853.37l2.189,-7.114l-4.652,1.368l0.274,-1.641l-3.557,1.641l0.547,-1.094l-2.189,0.547l-3.283,-0.547l3.283,-1.642l-1.641,-0.821l6.019,-1.915l-2.189,-0.821l2.463,-0.82l2.189,-1.095l-4.652,0.274l3.01,-2.189l-2.463,0.547l-3.556,0.821l1.915,-2.189l-1.095,-0.821l4.652,-2.462l-1.642,-0l2.463,-1.368l-4.105,-0.821l1.642,-0.547l-1.915,-1.095l3.557,-1.915l-1.916,-0.547l2.737,-1.915l1.641,-1.095l-1.915,-0.547l-1.368,-1.641l1.368,-0.274l1.642,0l-0.274,-3.01l1.915,1.095l0.402,-0.86l-0.716,-1.586l1.135,0.257l-0,-1.642l1.094,0.821l0.548,-1.368l0.547,1.915l1.368,0.274l-0.547,0.821l1.094,0.273l1.368,-0.273l-1.094,1.094l1.094,0.547l0.547,-1.094l-0.547,2.189l1.915,-0.821l-1.368,1.915l1.368,-0.547l-1.094,1.915l0.547,0.821l2.189,-1.094l-1.368,1.641l1.915,0.547l-1.642,0.274l-1.368,1.094l1.642,0.548l2.462,1.641l-2.188,-0.273l1.915,1.094l-1.095,0.274l1.095,2.462l-2.189,-0.274l4.651,1.642l-1.915,0.547l3.557,0.821l-4.651,0.274l1.368,0.547l-3.01,0.821l-1.915,1.368l3.83,0.273l-1.094,1.095l3.557,-1.095l-1.368,1.916l7.934,0.547l-5.472,2.189l4.104,-0l-2.736,1.641l-1.368,0l2.189,1.368l-6.019,0l1.915,1.368l-5.746,-1.368l0.547,1.642l-1.641,-0.547l0.821,5.472l-1.642,-0.821l-0.547,0.547l-1.095,-0.821l-0.82,0.821l-0.821,-0.547l-1.095,0.547l-0.82,0.821l-0.821,-0Z" style="fill:url(#_Radial6);"/></g><g><path d="M4318.91,1859.03l1.909,-6.202l-4.056,1.193l0.239,-1.432l-3.101,1.432l0.477,-0.954l-1.909,0.477l-2.862,-0.477l2.862,-1.432l-1.431,-0.715l5.248,-1.67l-1.908,-0.716l2.147,-0.716l1.908,-0.954l-4.055,0.239l2.624,-1.909l-2.147,0.477l-3.101,0.716l1.67,-1.908l-0.955,-0.716l4.056,-2.147l-1.432,-0l2.147,-1.193l-3.578,-0.716l1.431,-0.477l-1.669,-0.954l3.101,-1.67l-1.67,-0.477l2.385,-1.67l1.432,-0.954l-1.67,-0.477l-1.193,-1.431l1.193,-0.239l1.431,-0l-0.238,-2.624l1.67,0.954l0.35,-0.75l-0.624,-1.383l0.989,0.225l0,-1.432l0.954,0.716l0.478,-1.193l0.477,1.67l1.192,0.239l-0.477,0.715l0.955,0.239l1.192,-0.239l-0.954,0.955l0.954,0.477l0.477,-0.955l-0.477,1.909l1.67,-0.716l-1.193,1.67l1.193,-0.477l-0.954,1.67l0.477,0.716l1.909,-0.955l-1.193,1.432l1.67,0.477l-1.432,0.238l-1.192,0.955l1.431,0.477l2.147,1.431l-1.909,-0.239l1.67,0.955l-0.954,0.238l0.954,2.147l-1.908,-0.238l4.055,1.431l-1.67,0.477l3.102,0.716l-4.056,0.238l1.193,0.477l-2.624,0.716l-1.67,1.193l3.34,0.238l-0.954,0.955l3.101,-0.955l-1.193,1.67l6.918,0.477l-4.771,1.909l3.578,-0l-2.385,1.431l-1.193,0l1.908,1.193l-5.248,0l1.67,1.193l-5.01,-1.193l0.478,1.431l-1.432,-0.477l0.716,4.771l-1.431,-0.715l-0.478,0.477l-0.954,-0.716l-0.715,0.716l-0.716,-0.477l-0.954,0.477l-0.716,0.715l-0.716,0Z" style="fill:url(#_Radial7);"/></g><g><path d="M4162.95,1824.05l1.765,-5.736l-3.75,1.103l0.22,-1.324l-2.868,1.324l0.442,-0.883l-1.765,0.441l-2.648,-0.441l2.648,-1.324l-1.324,-0.661l4.854,-1.545l-1.765,-0.662l1.985,-0.662l1.765,-0.882l-3.75,0.221l2.426,-1.765l-1.985,0.441l-2.868,0.662l1.544,-1.765l-0.882,-0.662l3.75,-1.986l-1.323,0l1.985,-1.103l-3.309,-0.662l1.324,-0.441l-1.545,-0.882l2.868,-1.545l-1.544,-0.441l2.206,-1.544l1.324,-0.883l-1.545,-0.441l-1.103,-1.324l1.103,-0.221l1.324,0l-0.22,-2.426l1.544,0.882l0.324,-0.693l-0.577,-1.279l0.915,0.207l-0,-1.324l0.882,0.662l0.442,-1.103l0.441,1.544l1.103,0.221l-0.441,0.662l0.882,0.221l1.103,-0.221l-0.882,0.882l0.882,0.442l0.442,-0.883l-0.442,1.765l1.545,-0.662l-1.103,1.545l1.103,-0.442l-0.883,1.545l0.441,0.662l1.765,-0.883l-1.103,1.324l1.545,0.441l-1.324,0.221l-1.103,0.882l1.324,0.442l1.985,1.323l-1.765,-0.22l1.545,0.882l-0.883,0.221l0.883,1.985l-1.765,-0.22l3.75,1.323l-1.544,0.442l2.868,0.662l-3.751,0.22l1.103,0.441l-2.426,0.662l-1.545,1.103l3.089,0.221l-0.883,0.883l2.868,-0.883l-1.103,1.544l6.398,0.442l-4.412,1.765l3.309,-0l-2.206,1.323l-1.103,0l1.765,1.104l-4.854,-0l1.545,1.103l-4.633,-1.103l0.441,1.323l-1.324,-0.441l0.662,4.412l-1.324,-0.661l-0.441,0.441l-0.883,-0.662l-0.661,0.662l-0.662,-0.441l-0.883,0.441l-0.662,0.662l-0.662,-0Z" style="fill:url(#_Radial8);"/></g><g><path d="M4415.93,1805.45l2.189,-7.114l-4.651,1.368l0.274,-1.641l-3.557,1.641l0.547,-1.094l-2.189,0.547l-3.283,-0.547l3.283,-1.642l-1.641,-0.82l6.019,-1.916l-2.189,-0.82l2.462,-0.821l2.189,-1.095l-4.651,0.274l3.01,-2.189l-2.463,0.547l-3.557,0.821l1.916,-2.189l-1.095,-0.82l4.651,-2.463l-1.641,0l2.462,-1.368l-4.104,-0.821l1.642,-0.547l-1.915,-1.094l3.556,-1.915l-1.915,-0.548l2.736,-1.915l1.642,-1.094l-1.915,-0.547l-1.368,-1.642l1.368,-0.274l1.641,0l-0.273,-3.009l1.915,1.094l0.402,-0.86l-0.716,-1.586l1.135,0.257l-0,-1.641l1.094,0.821l0.547,-1.368l0.547,1.915l1.368,0.273l-0.547,0.821l1.095,0.274l1.368,-0.274l-1.095,1.095l1.095,0.547l0.547,-1.095l-0.547,2.189l1.915,-0.821l-1.368,1.916l1.368,-0.548l-1.095,1.916l0.548,0.82l2.188,-1.094l-1.368,1.642l1.916,0.547l-1.642,0.273l-1.368,1.095l1.642,0.547l2.462,1.642l-2.189,-0.274l1.915,1.094l-1.094,0.274l1.094,2.462l-2.188,-0.273l4.651,1.641l-1.915,0.548l3.556,0.82l-4.651,0.274l1.368,0.547l-3.009,0.821l-1.916,1.368l3.831,0.274l-1.095,1.094l3.557,-1.094l-1.368,1.915l7.935,0.547l-5.472,2.189l4.104,-0l-2.736,1.641l-1.368,0l2.188,1.368l-6.019,0l1.915,1.368l-5.745,-1.368l0.547,1.642l-1.642,-0.547l0.821,5.472l-1.641,-0.821l-0.548,0.547l-1.094,-0.821l-0.821,0.821l-0.821,-0.547l-1.094,0.547l-0.821,0.821l-0.821,0Z" style="fill:url(#_Radial9);"/></g><g><path d="M4354.07,1750.7l1.429,-4.644l-3.036,0.893l0.178,-1.071l-2.321,1.071l0.357,-0.714l-1.429,0.357l-2.143,-0.357l2.143,-1.072l-1.072,-0.535l3.93,-1.251l-1.429,-0.535l1.607,-0.536l1.429,-0.715l-3.036,0.179l1.964,-1.429l-1.607,0.357l-2.322,0.536l1.25,-1.429l-0.714,-0.536l3.036,-1.607l-1.071,0l1.607,-0.893l-2.679,-0.536l1.072,-0.357l-1.251,-0.714l2.322,-1.251l-1.25,-0.357l1.786,-1.25l1.072,-0.715l-1.251,-0.357l-0.893,-1.071l0.893,-0.179l1.072,0l-0.179,-1.965l1.251,0.715l0.262,-0.561l-0.467,-1.036l0.74,0.168l0,-1.072l0.715,0.536l0.357,-0.893l0.357,1.25l0.893,0.179l-0.357,0.536l0.714,0.178l0.893,-0.178l-0.714,0.714l0.714,0.357l0.358,-0.714l-0.358,1.429l1.251,-0.536l-0.893,1.25l0.893,-0.357l-0.715,1.25l0.358,0.536l1.428,-0.714l-0.893,1.071l1.251,0.358l-1.072,0.178l-0.893,0.715l1.072,0.357l1.607,1.071l-1.429,-0.178l1.25,0.714l-0.714,0.179l0.714,1.607l-1.428,-0.178l3.036,1.071l-1.25,0.357l2.321,0.536l-3.036,0.179l0.893,0.357l-1.964,0.536l-1.251,0.893l2.501,0.179l-0.715,0.714l2.322,-0.714l-0.893,1.25l5.18,0.357l-3.572,1.429l2.679,-0l-1.786,1.071l-0.893,0l1.428,0.893l-3.929,0l1.25,0.893l-3.75,-0.893l0.357,1.072l-1.072,-0.357l0.536,3.572l-1.072,-0.536l-0.357,0.357l-0.714,-0.535l-0.536,0.535l-0.536,-0.357l-0.714,0.357l-0.536,0.536l-0.536,0Z" style="fill:url(#_Radial10);"/></g><g><path d="M4373.37,1776.13l1.765,-5.736l-3.75,1.103l0.22,-1.324l-2.868,1.324l0.441,-0.883l-1.765,0.442l-2.647,-0.442l2.647,-1.323l-1.323,-0.662l4.853,-1.545l-1.765,-0.661l1.986,-0.662l1.765,-0.883l-3.751,0.221l2.427,-1.765l-1.985,0.441l-2.869,0.662l1.545,-1.765l-0.883,-0.662l3.751,-1.985l-1.324,-0l1.986,-1.104l-3.31,-0.661l1.324,-0.442l-1.544,-0.882l2.868,-1.545l-1.544,-0.441l2.206,-1.544l1.324,-0.883l-1.545,-0.441l-1.103,-1.324l1.103,-0.22l1.324,-0l-0.221,-2.427l1.545,0.882l0.324,-0.693l-0.577,-1.279l0.915,0.207l-0,-1.323l0.882,0.662l0.441,-1.104l0.441,1.545l1.104,0.22l-0.442,0.662l0.883,0.221l1.103,-0.221l-0.883,0.883l0.883,0.441l0.441,-0.882l-0.441,1.765l1.544,-0.662l-1.103,1.544l1.103,-0.441l-0.882,1.544l0.441,0.662l1.765,-0.882l-1.103,1.323l1.544,0.441l-1.323,0.221l-1.104,0.883l1.324,0.441l1.986,1.324l-1.765,-0.221l1.544,0.882l-0.882,0.221l0.882,1.986l-1.765,-0.221l3.751,1.324l-1.545,0.441l2.869,0.662l-3.751,0.221l1.103,0.441l-2.427,0.662l-1.544,1.103l3.089,0.22l-0.883,0.883l2.868,-0.883l-1.103,1.545l6.398,0.441l-4.412,1.765l3.309,-0l-2.206,1.324l-1.103,-0l1.765,1.103l-4.854,-0l1.544,1.103l-4.633,-1.103l0.441,1.324l-1.323,-0.442l0.662,4.413l-1.324,-0.662l-0.441,0.441l-0.883,-0.662l-0.662,0.662l-0.662,-0.441l-0.882,0.441l-0.662,0.662l-0.662,0Z" style="fill:url(#_Radial11);"/></g><g><path d="M4203.56,1796.63l3.723,-12.098l-7.91,2.327l0.465,-2.792l-6.049,2.792l0.931,-1.862l-3.723,0.931l-5.583,-0.931l5.583,-2.791l-2.792,-1.396l10.237,-3.257l-3.722,-1.396l4.187,-1.396l3.723,-1.861l-7.91,0.465l5.118,-3.722l-4.188,0.93l-6.049,1.396l3.257,-3.722l-1.861,-1.396l7.91,-4.188l-2.791,0l4.187,-2.326l-6.979,-1.396l2.792,-0.931l-3.258,-1.861l6.049,-3.257l-3.257,-0.931l4.653,-3.257l2.792,-1.861l-3.257,-0.931l-2.327,-2.791l2.327,-0.466l2.792,0l-0.466,-5.118l3.257,1.861l0.684,-1.462l-1.217,-2.698l1.929,0.438l0,-2.792l1.862,1.396l0.93,-2.327l0.931,3.257l2.326,0.466l-0.93,1.396l1.861,0.465l2.326,-0.465l-1.861,1.861l1.861,0.93l0.931,-1.861l-0.931,3.723l3.257,-1.396l-2.326,3.257l2.326,-0.931l-1.861,3.257l0.931,1.396l3.722,-1.861l-2.326,2.792l3.257,0.93l-2.792,0.466l-2.326,1.861l2.791,0.93l4.188,2.792l-3.722,-0.465l3.257,1.861l-1.861,0.465l1.861,4.188l-3.723,-0.465l7.91,2.792l-3.257,0.93l6.049,1.396l-7.91,0.465l2.327,0.931l-5.119,1.396l-3.257,2.326l6.514,0.466l-1.861,1.861l6.049,-1.861l-2.326,3.257l13.493,0.93l-9.306,3.723l6.98,-0l-4.653,2.792l-2.327,-0l3.723,2.326l-10.237,0l3.257,2.327l-9.771,-2.327l0.931,2.792l-2.792,-0.931l1.396,9.306l-2.792,-1.396l-0.931,0.931l-1.861,-1.396l-1.396,1.396l-1.396,-0.931l-1.861,0.931l-1.396,1.396l-1.396,-0Z" style="fill:url(#_Radial12);"/></g><g><path d="M4125.51,1828.98l3.568,-11.599l-7.583,2.231l0.446,-2.677l-5.8,2.677l0.893,-1.785l-3.569,0.893l-5.354,-0.893l5.354,-2.676l-2.677,-1.338l9.814,-3.123l-3.568,-1.339l4.015,-1.338l3.568,-1.784l-7.583,0.446l4.907,-3.569l-4.015,0.892l-5.8,1.338l3.123,-3.568l-1.784,-1.339l7.584,-4.015l-2.677,0l4.015,-2.23l-6.692,-1.339l2.677,-0.892l-3.123,-1.784l5.8,-3.123l-3.123,-0.892l4.461,-3.123l2.677,-1.784l-3.123,-0.892l-2.231,-2.677l2.231,-0.446l2.676,-0l-0.446,-4.907l3.123,1.784l0.655,-1.402l-1.167,-2.586l1.85,0.419l0,-2.676l1.785,1.338l0.892,-2.231l0.892,3.123l2.231,0.446l-0.892,1.338l1.784,0.447l2.231,-0.447l-1.785,1.785l1.785,0.892l0.892,-1.784l-0.892,3.569l3.122,-1.339l-2.23,3.123l2.23,-0.892l-1.784,3.123l0.892,1.338l3.569,-1.785l-2.231,2.677l3.123,0.892l-2.677,0.446l-2.23,1.785l2.677,0.892l4.015,2.677l-3.569,-0.446l3.122,1.784l-1.784,0.446l1.784,4.015l-3.568,-0.446l7.583,2.677l-3.122,0.892l5.799,1.338l-7.584,0.446l2.231,0.892l-4.907,1.339l-3.123,2.23l6.245,0.446l-1.784,1.785l5.799,-1.785l-2.23,3.123l12.937,0.892l-8.922,3.569l6.691,0l-4.461,2.677l-2.23,-0l3.569,2.23l-9.815,0l3.123,2.231l-9.368,-2.231l0.892,2.677l-2.677,-0.892l1.339,8.922l-2.677,-1.338l-0.892,0.892l-1.785,-1.338l-1.338,1.338l-1.338,-0.892l-1.785,0.892l-1.338,1.338l-1.338,0Z" style="fill:url(#_Radial13);"/></g><g><path d="M4011.91,1815.28l3.163,-10.278l-6.721,1.976l0.395,-2.372l-5.139,2.372l0.791,-1.581l-3.163,0.791l-4.744,-0.791l4.744,-2.372l-2.372,-1.186l8.697,-2.767l-3.162,-1.186l3.558,-1.186l3.162,-1.582l-6.72,0.396l4.348,-3.163l-3.558,0.791l-5.139,1.186l2.767,-3.163l-1.581,-1.186l6.721,-3.558l-2.372,-0l3.558,-1.977l-5.93,-1.186l2.372,-0.79l-2.768,-1.582l5.14,-2.767l-2.768,-0.791l3.954,-2.767l2.372,-1.581l-2.768,-0.791l-1.976,-2.372l1.976,-0.395l2.372,-0l-0.395,-4.349l2.767,1.581l0.581,-1.242l-1.034,-2.292l1.639,0.371l0,-2.372l1.582,1.186l0.79,-1.976l0.791,2.767l1.977,0.395l-0.791,1.187l1.581,0.395l1.977,-0.395l-1.581,1.581l1.581,0.791l0.791,-1.582l-0.791,3.163l2.767,-1.186l-1.976,2.767l1.976,-0.79l-1.581,2.767l0.791,1.186l3.162,-1.581l-1.976,2.372l2.767,0.79l-2.372,0.396l-1.977,1.581l2.372,0.791l3.558,2.372l-3.162,-0.396l2.767,1.582l-1.581,0.395l1.581,3.558l-3.163,-0.395l6.721,2.372l-2.767,0.79l5.139,1.186l-6.721,0.396l1.977,0.79l-4.349,1.186l-2.767,1.977l5.535,0.395l-1.582,1.582l5.14,-1.582l-1.977,2.768l11.465,0.79l-7.907,3.163l5.93,0l-3.953,2.372l-1.977,0l3.163,1.977l-8.698,-0l2.768,1.976l-8.302,-1.976l0.79,2.372l-2.372,-0.791l1.186,7.907l-2.372,-1.186l-0.79,0.79l-1.582,-1.186l-1.186,1.186l-1.186,-0.79l-1.581,0.79l-1.186,1.186l-1.186,0Z" style="fill:url(#_Radial14);"/></g><g><path d="M4193.11,1892.46l3.568,-11.599l-7.583,2.231l0.446,-2.677l-5.8,2.677l0.893,-1.785l-3.569,0.892l-5.354,-0.892l5.354,-2.676l-2.677,-1.339l9.814,-3.122l-3.568,-1.339l4.014,-1.338l3.569,-1.785l-7.583,0.447l4.907,-3.569l-4.015,0.892l-5.8,1.338l3.123,-3.569l-1.784,-1.338l7.583,-4.015l-2.676,0l4.015,-2.23l-6.692,-1.339l2.677,-0.892l-3.123,-1.784l5.799,-3.123l-3.122,-0.892l4.461,-3.123l2.676,-1.785l-3.122,-0.892l-2.231,-2.676l2.231,-0.446l2.676,-0l-0.446,-4.908l3.123,1.785l0.655,-1.402l-1.167,-2.587l1.85,0.42l0,-2.677l1.785,1.339l0.892,-2.231l0.892,3.123l2.231,0.446l-0.893,1.338l1.785,0.446l2.23,-0.446l-1.784,1.785l1.784,0.892l0.893,-1.785l-0.893,3.569l3.123,-1.338l-2.23,3.123l2.23,-0.892l-1.784,3.122l0.892,1.339l3.569,-1.785l-2.231,2.677l3.123,0.892l-2.677,0.446l-2.23,1.785l2.676,0.892l4.015,2.676l-3.568,-0.446l3.122,1.785l-1.784,0.446l1.784,4.015l-3.569,-0.446l7.584,2.676l-3.122,0.893l5.799,1.338l-7.584,0.446l2.231,0.892l-4.908,1.338l-3.122,2.231l6.245,0.446l-1.784,1.785l5.799,-1.785l-2.23,3.123l12.937,0.892l-8.922,3.569l6.691,-0l-4.461,2.677l-2.23,-0l3.568,2.23l-9.814,0l3.123,2.231l-9.368,-2.231l0.892,2.677l-2.677,-0.892l1.339,8.922l-2.677,-1.339l-0.892,0.893l-1.785,-1.339l-1.338,1.339l-1.338,-0.893l-1.785,0.893l-1.338,1.338l-1.338,-0Z" style="fill:url(#_Radial15);"/></g><g><path d="M3858.69,1866.97l4.11,-13.358l-8.735,2.569l0.514,-3.083l-6.679,3.083l1.027,-2.056l-4.11,1.028l-6.166,-1.028l6.166,-3.082l-3.083,-1.542l11.304,-3.596l-4.111,-1.542l4.625,-1.541l4.11,-2.055l-8.735,0.513l5.652,-4.11l-4.624,1.028l-6.68,1.541l3.597,-4.11l-2.055,-1.542l8.735,-4.624l-3.083,-0l4.624,-2.569l-7.707,-1.541l3.083,-1.028l-3.597,-2.055l6.68,-3.597l-3.597,-1.027l5.138,-3.597l3.083,-2.055l-3.597,-1.028l-2.569,-3.083l2.569,-0.514l3.083,0l-0.514,-5.651l3.597,2.055l0.754,-1.615l-1.344,-2.979l2.131,0.483l0,-3.082l2.055,1.541l1.028,-2.569l1.028,3.597l2.569,0.513l-1.028,1.542l2.055,0.514l2.569,-0.514l-2.055,2.055l2.055,1.028l1.028,-2.056l-1.028,4.111l3.597,-1.542l-2.569,3.597l2.569,-1.028l-2.055,3.597l1.027,1.541l4.111,-2.055l-2.569,3.083l3.596,1.028l-3.083,0.513l-2.569,2.056l3.083,1.027l4.624,3.083l-4.11,-0.514l3.597,2.056l-2.056,0.513l2.056,4.625l-4.111,-0.514l8.735,3.083l-3.597,1.027l6.68,1.542l-8.735,0.513l2.569,1.028l-5.652,1.541l-3.596,2.569l7.193,0.514l-2.055,2.055l6.679,-2.055l-2.569,3.597l14.9,1.027l-10.276,4.111l7.707,-0l-5.138,3.083l-2.569,-0l4.111,2.569l-11.304,-0l3.597,2.569l-10.79,-2.569l1.027,3.082l-3.082,-1.027l1.541,10.276l-3.083,-1.542l-1.027,1.028l-2.056,-1.541l-1.541,1.541l-1.541,-1.028l-2.056,1.028l-1.541,1.541l-1.541,0Z" style="fill:url(#_Radial16);"/></g><g><path d="M3932.6,1807.53l2.189,-7.113l-4.651,1.368l0.273,-1.642l-3.557,1.642l0.548,-1.095l-2.189,0.548l-3.283,-0.548l3.283,-1.641l-1.642,-0.821l6.019,-1.915l-2.188,-0.821l2.462,-0.821l2.189,-1.094l-4.651,0.273l3.009,-2.188l-2.462,0.547l-3.557,0.821l1.915,-2.189l-1.094,-0.821l4.651,-2.462l-1.642,-0l2.463,-1.368l-4.104,-0.821l1.641,-0.547l-1.915,-1.095l3.557,-1.915l-1.915,-0.547l2.736,-1.915l1.641,-1.095l-1.915,-0.547l-1.368,-1.642l1.368,-0.273l1.642,-0l-0.274,-3.01l1.915,1.095l0.402,-0.86l-0.715,-1.587l1.134,0.258l0,-1.642l1.095,0.821l0.547,-1.368l0.547,1.915l1.368,0.274l-0.547,0.821l1.094,0.273l1.368,-0.273l-1.094,1.094l1.094,0.547l0.547,-1.094l-0.547,2.189l1.915,-0.821l-1.368,1.915l1.368,-0.547l-1.094,1.915l0.547,0.821l2.189,-1.095l-1.368,1.642l1.915,0.547l-1.641,0.274l-1.368,1.094l1.641,0.547l2.463,1.642l-2.189,-0.274l1.915,1.095l-1.094,0.273l1.094,2.463l-2.189,-0.274l4.651,1.642l-1.915,0.547l3.557,0.821l-4.651,0.273l1.368,0.548l-3.01,0.82l-1.915,1.368l3.83,0.274l-1.094,1.094l3.557,-1.094l-1.368,1.915l7.934,0.547l-5.472,2.189l4.104,0l-2.736,1.642l-1.368,-0l2.189,1.368l-6.019,-0l1.915,1.368l-5.746,-1.368l0.548,1.641l-1.642,-0.547l0.821,5.472l-1.642,-0.821l-0.547,0.548l-1.094,-0.821l-0.821,0.821l-0.821,-0.548l-1.094,0.548l-0.821,0.82l-0.821,0Z" style="fill:url(#_Radial17);"/></g><g><path d="M4045.99,1813.2l1.908,-6.202l-4.055,1.192l0.238,-1.431l-3.101,1.431l0.477,-0.954l-1.908,0.477l-2.863,-0.477l2.863,-1.431l-1.432,-0.716l5.249,-1.67l-1.909,-0.715l2.147,-0.716l1.909,-0.954l-4.056,0.238l2.624,-1.908l-2.147,0.477l-3.101,0.716l1.67,-1.909l-0.954,-0.715l4.055,-2.147l-1.431,-0l2.147,-1.193l-3.579,-0.716l1.432,-0.477l-1.67,-0.954l3.101,-1.67l-1.67,-0.477l2.386,-1.67l1.431,-0.954l-1.67,-0.477l-1.193,-1.432l1.193,-0.238l1.432,-0l-0.239,-2.624l1.67,0.954l0.35,-0.75l-0.624,-1.383l0.99,0.224l-0,-1.431l0.954,0.716l0.477,-1.193l0.477,1.67l1.193,0.238l-0.477,0.716l0.954,0.239l1.193,-0.239l-0.955,0.954l0.955,0.477l0.477,-0.954l-0.477,1.909l1.67,-0.716l-1.193,1.67l1.193,-0.477l-0.955,1.67l0.477,0.715l1.909,-0.954l-1.193,1.431l1.67,0.477l-1.431,0.239l-1.193,0.954l1.431,0.477l2.147,1.432l-1.908,-0.239l1.67,0.954l-0.955,0.239l0.955,2.147l-1.909,-0.239l4.056,1.432l-1.67,0.477l3.101,0.715l-4.055,0.239l1.192,0.477l-2.624,0.716l-1.67,1.193l3.34,0.238l-0.954,0.954l3.101,-0.954l-1.193,1.67l6.918,0.477l-4.771,1.909l3.579,-0l-2.386,1.431l-1.193,-0l1.909,1.193l-5.248,-0l1.669,1.192l-5.009,-1.192l0.477,1.431l-1.431,-0.477l0.715,4.771l-1.431,-0.716l-0.477,0.477l-0.954,-0.715l-0.716,0.715l-0.716,-0.477l-0.954,0.477l-0.716,0.716l-0.715,0Z" style="fill:url(#_Radial18);"/></g><g><path d="M4161.42,1864.05l2.125,-6.905l-4.515,1.328l0.265,-1.594l-3.452,1.594l0.531,-1.062l-2.125,0.531l-3.187,-0.531l3.187,-1.594l-1.593,-0.797l5.842,-1.859l-2.124,-0.797l2.39,-0.796l2.125,-1.063l-4.515,0.266l2.921,-2.125l-2.39,0.531l-3.453,0.797l1.859,-2.125l-1.062,-0.796l4.515,-2.391l-1.594,0l2.391,-1.328l-3.984,-0.796l1.593,-0.532l-1.859,-1.062l3.453,-1.859l-1.859,-0.531l2.656,-1.859l1.593,-1.063l-1.859,-0.531l-1.328,-1.593l1.328,-0.266l1.594,0l-0.266,-2.921l1.859,1.062l0.39,-0.835l-0.694,-1.539l1.101,0.249l-0,-1.593l1.062,0.797l0.532,-1.328l0.531,1.859l1.328,0.265l-0.532,0.797l1.063,0.266l1.328,-0.266l-1.063,1.062l1.063,0.532l0.531,-1.063l-0.531,2.125l1.859,-0.797l-1.328,1.859l1.328,-0.531l-1.063,1.859l0.532,0.797l2.124,-1.062l-1.328,1.593l1.86,0.531l-1.594,0.266l-1.328,1.062l1.594,0.531l2.39,1.594l-2.125,-0.266l1.859,1.063l-1.062,0.265l1.062,2.391l-2.124,-0.266l4.515,1.594l-1.86,0.531l3.453,0.796l-4.515,0.266l1.328,0.531l-2.921,0.797l-1.86,1.328l3.719,0.266l-1.063,1.062l3.453,-1.062l-1.328,1.859l7.702,0.531l-5.312,2.124l3.984,0l-2.656,1.594l-1.328,0l2.125,1.328l-5.843,-0l1.859,1.328l-5.577,-1.328l0.531,1.593l-1.593,-0.531l0.796,5.312l-1.593,-0.797l-0.531,0.531l-1.063,-0.796l-0.796,0.796l-0.797,-0.531l-1.063,0.531l-0.796,0.797l-0.797,0Z" style="fill:url(#_Radial19);"/></g><g><path d="M3973.61,1897.92l2.937,-9.546l-6.241,1.836l0.367,-2.203l-4.773,2.203l0.734,-1.469l-2.937,0.735l-4.405,-0.735l4.405,-2.202l-2.203,-1.102l8.077,-2.57l-2.937,-1.101l3.304,-1.101l2.937,-1.469l-6.241,0.367l4.039,-2.937l-3.305,0.734l-4.772,1.102l2.57,-2.937l-1.469,-1.102l6.241,-3.304l-2.202,0l3.304,-1.835l-5.507,-1.102l2.203,-0.734l-2.57,-1.469l4.772,-2.569l-2.57,-0.735l3.672,-2.57l2.203,-1.468l-2.57,-0.734l-1.836,-2.203l1.836,-0.367l2.202,-0l-0.367,-4.039l2.57,1.469l0.539,-1.154l-0.96,-2.129l1.523,0.346l-0,-2.203l1.468,1.101l0.734,-1.835l0.735,2.57l1.835,0.367l-0.734,1.101l1.469,0.367l1.835,-0.367l-1.468,1.469l1.468,0.734l0.734,-1.469l-0.734,2.937l2.57,-1.101l-1.836,2.57l1.836,-0.734l-1.468,2.57l0.734,1.101l2.937,-1.469l-1.836,2.203l2.57,0.734l-2.203,0.368l-1.835,1.468l2.202,0.734l3.305,2.203l-2.937,-0.367l2.569,1.469l-1.468,0.367l1.468,3.304l-2.937,-0.367l6.242,2.202l-2.57,0.735l4.772,1.101l-6.241,0.367l1.836,0.735l-4.039,1.101l-2.569,1.836l5.139,0.367l-1.468,1.468l4.773,-1.468l-1.836,2.57l10.647,0.734l-7.343,2.937l5.507,-0l-3.671,2.203l-1.836,-0l2.937,1.835l-8.077,0l2.57,1.836l-7.71,-1.836l0.735,2.203l-2.203,-0.734l1.101,7.342l-2.202,-1.101l-0.735,0.734l-1.468,-1.101l-1.102,1.101l-1.101,-0.734l-1.469,0.734l-1.101,1.102l-1.101,-0Z" style="fill:url(#_Radial20);"/></g><g><path d="M3997.62,1824.21l2.396,-7.785l-5.091,1.497l0.3,-1.797l-3.893,1.797l0.599,-1.198l-2.396,0.599l-3.593,-0.599l3.593,-1.796l-1.796,-0.899l6.587,-2.096l-2.395,-0.898l2.695,-0.898l2.395,-1.198l-5.09,0.299l3.294,-2.395l-2.695,0.599l-3.893,0.898l2.096,-2.395l-1.198,-0.899l5.091,-2.695l-1.797,0l2.695,-1.497l-4.491,-0.898l1.796,-0.599l-2.096,-1.198l3.893,-2.096l-2.096,-0.599l2.994,-2.096l1.797,-1.197l-2.096,-0.599l-1.498,-1.797l1.498,-0.299l1.796,-0l-0.299,-3.294l2.096,1.198l0.44,-0.941l-0.784,-1.736l1.242,0.281l0,-1.796l1.198,0.898l0.599,-1.497l0.599,2.096l1.497,0.299l-0.599,0.899l1.198,0.299l1.497,-0.299l-1.198,1.197l1.198,0.599l0.599,-1.198l-0.599,2.396l2.096,-0.898l-1.497,2.096l1.497,-0.599l-1.198,2.096l0.599,0.898l2.395,-1.198l-1.497,1.797l2.096,0.599l-1.796,0.299l-1.497,1.198l1.796,0.599l2.695,1.796l-2.395,-0.299l2.096,1.198l-1.198,0.299l1.198,2.695l-2.396,-0.299l5.091,1.796l-2.096,0.599l3.892,0.898l-5.09,0.3l1.497,0.599l-3.294,0.898l-2.096,1.497l4.192,0.3l-1.198,1.197l3.893,-1.197l-1.497,2.096l8.684,0.599l-5.989,2.395l4.491,0l-2.994,1.797l-1.497,-0l2.395,1.497l-6.587,-0l2.096,1.497l-6.288,-1.497l0.599,1.796l-1.797,-0.598l0.898,5.988l-1.796,-0.898l-0.599,0.599l-1.198,-0.898l-0.898,0.898l-0.899,-0.599l-1.197,0.599l-0.899,0.898l-0.898,0Z" style="fill:url(#_Radial21);"/></g><g><path d="M3890.04,1778.21l1.765,-5.736l-3.751,1.103l0.221,-1.323l-2.868,1.323l0.441,-0.882l-1.765,0.441l-2.647,-0.441l2.647,-1.324l-1.324,-0.662l4.854,-1.544l-1.765,-0.662l1.986,-0.662l1.765,-0.882l-3.751,0.22l2.427,-1.765l-1.986,0.441l-2.868,0.662l1.544,-1.765l-0.882,-0.661l3.751,-1.986l-1.324,-0l1.985,-1.103l-3.309,-0.662l1.324,-0.441l-1.545,-0.883l2.869,-1.544l-1.545,-0.441l2.206,-1.545l1.324,-0.882l-1.544,-0.442l-1.103,-1.323l1.103,-0.221l1.324,0l-0.221,-2.427l1.544,0.883l0.324,-0.694l-0.577,-1.279l0.915,0.208l0,-1.324l0.883,0.662l0.441,-1.103l0.441,1.544l1.103,0.221l-0.441,0.662l0.883,0.22l1.103,-0.22l-0.883,0.882l0.883,0.441l0.441,-0.882l-0.441,1.765l1.544,-0.662l-1.103,1.544l1.103,-0.441l-0.883,1.544l0.442,0.662l1.765,-0.882l-1.103,1.324l1.544,0.441l-1.324,0.22l-1.103,0.883l1.324,0.441l1.985,1.324l-1.765,-0.221l1.545,0.883l-0.883,0.22l0.883,1.986l-1.765,-0.221l3.75,1.324l-1.544,0.441l2.868,0.662l-3.75,0.221l1.103,0.441l-2.427,0.662l-1.545,1.103l3.089,0.221l-0.882,0.882l2.868,-0.882l-1.103,1.544l6.398,0.441l-4.413,1.765l3.31,0l-2.207,1.324l-1.103,0l1.765,1.103l-4.853,0l1.544,1.103l-4.633,-1.103l0.441,1.324l-1.324,-0.441l0.662,4.412l-1.323,-0.662l-0.442,0.441l-0.882,-0.661l-0.662,0.661l-0.662,-0.441l-0.882,0.441l-0.662,0.662l-0.662,0Z" style="fill:url(#_Radial22);"/></g><g><path d="M4288.88,1872.82l2.305,-7.492l-4.899,1.441l0.288,-1.729l-3.746,1.729l0.577,-1.152l-2.306,0.576l-3.457,-0.576l3.457,-1.729l-1.728,-0.865l6.339,-2.017l-2.305,-0.864l2.593,-0.865l2.305,-1.152l-4.898,0.288l3.169,-2.305l-2.593,0.576l-3.746,0.864l2.017,-2.305l-1.153,-0.864l4.899,-2.594l-1.729,0l2.594,-1.44l-4.323,-0.865l1.729,-0.576l-2.017,-1.153l3.746,-2.017l-2.017,-0.576l2.882,-2.017l1.728,-1.153l-2.017,-0.576l-1.44,-1.729l1.44,-0.288l1.729,-0l-0.288,-3.17l2.017,1.153l0.423,-0.906l-0.753,-1.671l1.195,0.272l-0,-1.729l1.152,0.864l0.577,-1.441l0.576,2.017l1.441,0.289l-0.577,0.864l1.153,0.288l1.441,-0.288l-1.153,1.153l1.153,0.576l0.576,-1.153l-0.576,2.305l2.017,-0.864l-1.441,2.017l1.441,-0.576l-1.153,2.017l0.576,0.864l2.306,-1.152l-1.441,1.729l2.017,0.576l-1.729,0.288l-1.441,1.153l1.729,0.576l2.594,1.729l-2.306,-0.288l2.017,1.152l-1.152,0.288l1.152,2.594l-2.305,-0.288l4.899,1.729l-2.017,0.576l3.746,0.864l-4.899,0.289l1.441,0.576l-3.17,0.864l-2.017,1.441l4.034,0.288l-1.152,1.153l3.746,-1.153l-1.441,2.017l8.356,0.577l-5.763,2.305l4.323,-0l-2.882,1.729l-1.441,-0l2.305,1.44l-6.339,0l2.017,1.441l-6.051,-1.441l0.576,1.729l-1.729,-0.576l0.865,5.763l-1.729,-0.864l-0.576,0.576l-1.153,-0.865l-0.864,0.865l-0.865,-0.576l-1.152,0.576l-0.865,0.864l-0.864,0Z" style="fill:url(#_Radial23);"/></g><g><path d="M4261.59,1857.14l1.854,-6.025l-3.939,1.158l0.231,-1.39l-3.012,1.39l0.463,-0.927l-1.854,0.464l-2.781,-0.464l2.781,-1.39l-1.39,-0.695l5.098,-1.623l-1.854,-0.695l2.086,-0.695l1.854,-0.927l-3.94,0.232l2.549,-1.854l-2.085,0.463l-3.013,0.696l1.622,-1.854l-0.927,-0.696l3.94,-2.085l-1.391,-0l2.086,-1.159l-3.476,-0.695l1.39,-0.464l-1.622,-0.927l3.013,-1.622l-1.622,-0.463l2.317,-1.622l1.391,-0.927l-1.623,-0.464l-1.158,-1.39l1.158,-0.232l1.391,-0l-0.232,-2.549l1.622,0.927l0.341,-0.728l-0.607,-1.344l0.961,0.218l0,-1.391l0.927,0.696l0.464,-1.159l0.463,1.622l1.159,0.232l-0.463,0.695l0.927,0.232l1.158,-0.232l-0.927,0.927l0.927,0.464l0.464,-0.927l-0.464,1.853l1.622,-0.695l-1.158,1.622l1.158,-0.463l-0.927,1.622l0.464,0.695l1.854,-0.927l-1.159,1.391l1.622,0.463l-1.39,0.232l-1.159,0.927l1.391,0.463l2.085,1.391l-1.854,-0.232l1.623,0.927l-0.927,0.232l0.927,2.086l-1.854,-0.232l3.939,1.39l-1.622,0.464l3.013,0.695l-3.94,0.232l1.159,0.463l-2.549,0.695l-1.623,1.159l3.245,0.232l-0.927,0.927l3.012,-0.927l-1.158,1.622l6.72,0.463l-4.635,1.854l3.476,0l-2.317,1.391l-1.159,-0l1.854,1.159l-5.098,-0l1.622,1.158l-4.866,-1.158l0.463,1.39l-1.39,-0.464l0.695,4.635l-1.39,-0.695l-0.464,0.464l-0.927,-0.696l-0.695,0.696l-0.695,-0.464l-0.927,0.464l-0.696,0.695l-0.695,-0Z" style="fill:url(#_Radial24);"/></g></g><path d="M415.872,583.438l65.305,5.667l8.965,78.205l23.389,82.243l53.85,229.733l29.896,111.237l75.111,53.227l50.142,125.83l114.849,153.656l52.849,214.287l103.301,80.239l425.76,77.006l70.131,39.261l263.096,35.75l78.457,85.447l-269.312,55.334l-1755.95,82.872l115.143,-1752.11l137.177,-133.787l131.98,-60.228l77.016,50.073l23.845,167.099l13.015,185.269l41.897,66.514l70.086,-32.829Z" style="fill:url(#_Linear25);"/><clipPath id="_clip26"><path d="M415.872,583.438l65.305,5.667l8.965,78.205l23.389,82.243l53.85,229.733l29.896,111.237l75.111,53.227l50.142,125.83l114.849,153.656l52.849,214.287l103.301,80.239l425.76,77.006l70.131,39.261l263.096,35.75l78.457,85.447l-269.312,55.334l-1755.95,82.872l115.143,-1752.11l137.177,-133.787l131.98,-60.228l77.016,50.073l23.845,167.099l13.015,185.269l41.897,66.514l70.086,-32.829Z"/></clipPath><g clip-path="url(#_clip26)"><path d="M946.639,1681.34c-134.801,14.219 -139.003,77.386 -386.222,74.911c-247.22,-2.475 -357.922,-9.52 -229.167,75c128.755,84.52 1543.75,179.31 1543.75,179.31l104.167,-168.893c-0,-0 -897.728,-174.546 -1032.53,-160.328Z" style="fill:#2d381e;"/><path d="M190.013,147.312l-269.157,194.015l22.894,1369.09l1005.03,236.51l44.97,-169.844l-114.991,-124.905l-47.878,-212.595l-114.214,-133.333l-43.407,-100.444l-10.76,-52.1l-42.206,-13.081l-23.017,-50.102l-29.896,-111.237l-53.85,-229.733l-23.389,-82.243l-65.142,-65.227l-87.5,35.417l-78.237,-102.575l-23.846,-268.258l-45.404,-119.355Z" style="fill:#0a0c0f;fill-opacity:0.5;"/></g><g><g><path d="M1006.62,1820.83l6.06,-19.694l-12.877,3.787l0.758,-4.545l-9.848,4.545l1.515,-3.03l-6.06,1.515l-9.09,-1.515l9.09,-4.545l-4.545,-2.272l16.665,-5.303l-6.06,-2.272l6.818,-2.273l6.059,-3.03l-12.877,0.758l8.333,-6.06l-6.818,1.515l-9.847,2.272l5.302,-6.06l-3.03,-2.272l12.878,-6.817l-4.545,-0l6.817,-3.788l-11.362,-2.272l4.545,-1.515l-5.303,-3.03l9.848,-5.303l-5.303,-1.515l7.575,-5.302l4.545,-3.03l-5.302,-1.515l-3.788,-4.545l3.788,-0.758l4.544,0l-0.757,-8.332l5.302,3.03l1.113,-2.38l-1.982,-4.392l3.142,0.712l-0,-4.545l3.03,2.273l1.515,-3.788l1.515,5.303l3.787,0.757l-1.515,2.273l3.03,0.757l3.788,-0.757l-3.03,3.03l3.03,1.515l1.515,-3.03l-1.515,6.059l5.302,-2.272l-3.787,5.302l3.787,-1.515l-3.03,5.303l1.515,2.272l6.06,-3.03l-3.787,4.545l5.302,1.515l-4.545,0.758l-3.787,3.03l4.545,1.515l6.817,4.545l-6.06,-0.758l5.303,3.03l-3.03,0.758l3.03,6.817l-6.06,-0.757l12.877,4.545l-5.303,1.515l9.848,2.272l-12.877,0.757l3.787,1.515l-8.332,2.273l-5.303,3.787l10.605,0.758l-3.03,3.03l9.847,-3.03l-3.787,5.302l21.967,1.515l-15.15,6.06l11.363,0l-7.575,4.545l-3.788,0l6.06,3.788l-16.664,-0l5.302,3.787l-15.907,-3.787l1.515,4.545l-4.545,-1.515l2.272,15.149l-4.545,-2.272l-1.515,1.515l-3.03,-2.273l-2.272,2.273l-2.273,-1.515l-3.03,1.515l-2.272,2.272l-2.273,0Z" style="fill:url(#_Radial27);"/></g><g><path d="M1296.03,1841.67l4.741,-15.409l-10.075,2.964l0.593,-3.556l-7.704,3.556l1.185,-2.371l-4.741,1.185l-7.111,-1.185l7.111,-3.556l-3.556,-1.777l13.038,-4.149l-4.741,-1.778l5.334,-1.778l4.741,-2.37l-10.075,0.593l6.519,-4.741l-5.334,1.185l-7.704,1.778l4.149,-4.741l-2.371,-1.778l10.075,-5.334l-3.556,0l5.334,-2.963l-8.89,-1.778l3.556,-1.185l-4.148,-2.37l7.704,-4.149l-4.149,-1.185l5.927,-4.148l3.555,-2.371l-4.148,-1.185l-2.963,-3.556l2.963,-0.592l3.556,-0l-0.593,-6.519l4.148,2.37l0.871,-1.862l-1.55,-3.436l2.457,0.557l0,-3.556l2.371,1.778l1.185,-2.963l1.185,4.149l2.963,0.592l-1.185,1.778l2.371,0.593l2.963,-0.593l-2.371,2.371l2.371,1.185l1.185,-2.371l-1.185,4.741l4.148,-1.778l-2.963,4.149l2.963,-1.185l-2.37,4.148l1.185,1.778l4.741,-2.371l-2.963,3.556l4.148,1.185l-3.556,0.593l-2.963,2.37l3.556,1.186l5.334,3.555l-4.741,-0.592l4.148,2.37l-2.371,0.593l2.371,5.333l-4.741,-0.592l10.075,3.556l-4.149,1.185l7.704,1.778l-10.074,0.592l2.963,1.185l-6.519,1.778l-4.148,2.963l8.296,0.593l-2.37,2.371l7.704,-2.371l-2.963,4.148l17.186,1.186l-11.853,4.741l8.89,-0l-5.927,3.555l-2.963,0l4.741,2.963l-13.037,0l4.148,2.964l-12.445,-2.964l1.185,3.556l-3.556,-1.185l1.778,11.852l-3.555,-1.777l-1.186,1.185l-2.37,-1.778l-1.778,1.778l-1.778,-1.185l-2.37,1.185l-1.778,1.778l-1.778,-0Z" style="fill:url(#_Radial28);"/></g><g><path d="M1158.96,1795.79l4.201,-13.655l-8.927,2.626l0.525,-3.151l-6.828,3.151l1.051,-2.1l-4.202,1.05l-6.302,-1.05l6.302,-3.152l-3.151,-1.575l11.554,-3.676l-4.201,-1.576l4.726,-1.575l4.202,-2.101l-8.928,0.525l5.777,-4.201l-4.727,1.05l-6.827,1.576l3.676,-4.202l-2.101,-1.575l8.928,-4.727l-3.151,0l4.727,-2.626l-7.878,-1.575l3.151,-1.051l-3.676,-2.1l6.827,-3.677l-3.676,-1.05l5.252,-3.676l3.151,-2.101l-3.676,-1.05l-2.626,-3.151l2.626,-0.525l3.151,-0l-0.525,-5.777l3.676,2.1l0.771,-1.65l-1.374,-3.045l2.178,0.494l0,-3.151l2.101,1.575l1.05,-2.626l1.051,3.677l2.626,0.525l-1.051,1.575l2.101,0.526l2.626,-0.526l-2.101,2.101l2.101,1.05l1.05,-2.1l-1.05,4.201l3.676,-1.575l-2.626,3.676l2.626,-1.05l-2.101,3.676l1.051,1.575l4.201,-2.1l-2.626,3.151l3.676,1.05l-3.151,0.525l-2.625,2.101l3.151,1.05l4.726,3.151l-4.201,-0.525l3.676,2.101l-2.101,0.525l2.101,4.727l-4.201,-0.526l8.928,3.151l-3.677,1.051l6.828,1.575l-8.928,0.525l2.626,1.051l-5.777,1.575l-3.677,2.626l7.353,0.525l-2.101,2.101l6.827,-2.101l-2.625,3.677l15.23,1.05l-10.504,4.201l7.878,0l-5.252,3.151l-2.626,0l4.202,2.626l-11.554,0l3.676,2.626l-11.029,-2.626l1.051,3.151l-3.152,-1.05l1.576,10.504l-3.151,-1.576l-1.05,1.05l-2.101,-1.575l-1.576,1.575l-1.575,-1.05l-2.101,1.05l-1.575,1.576l-1.576,-0Z" style="fill:url(#_Radial29);"/></g><g><path d="M1443.95,1901.08l4.741,-15.408l-10.075,2.963l0.593,-3.556l-7.704,3.556l1.185,-2.37l-4.741,1.185l-7.112,-1.185l7.112,-3.556l-3.556,-1.778l13.038,-4.148l-4.741,-1.778l5.333,-1.778l4.741,-2.371l-10.074,0.593l6.519,-4.741l-5.334,1.185l-7.704,1.778l4.148,-4.741l-2.37,-1.778l10.074,-5.333l-3.555,-0l5.333,-2.963l-8.889,-1.778l3.556,-1.186l-4.149,-2.37l7.704,-4.148l-4.148,-1.186l5.926,-4.148l3.556,-2.37l-4.148,-1.186l-2.963,-3.555l2.963,-0.593l3.555,-0l-0.592,-6.519l4.148,2.371l0.87,-1.863l-1.55,-3.436l2.458,0.558l-0,-3.556l2.37,1.778l1.186,-2.963l1.185,4.148l2.963,0.593l-1.185,1.777l2.37,0.593l2.963,-0.593l-2.37,2.371l2.37,1.185l1.186,-2.37l-1.186,4.741l4.149,-1.778l-2.963,4.148l2.963,-1.185l-2.371,4.148l1.185,1.778l4.741,-2.37l-2.963,3.555l4.149,1.186l-3.556,0.592l-2.963,2.371l3.556,1.185l5.333,3.556l-4.741,-0.593l4.149,2.371l-2.371,0.592l2.371,5.334l-4.741,-0.593l10.074,3.556l-4.148,1.185l7.704,1.778l-10.075,0.593l2.963,1.185l-6.518,1.778l-4.149,2.963l8.297,0.592l-2.371,2.371l7.705,-2.371l-2.964,4.149l17.186,1.185l-11.852,4.741l8.889,0l-5.926,3.556l-2.963,-0l4.741,2.963l-13.038,-0l4.149,2.963l-12.445,-2.963l1.185,3.556l-3.556,-1.186l1.778,11.853l-3.556,-1.778l-1.185,1.185l-2.37,-1.778l-1.778,1.778l-1.778,-1.185l-2.371,1.185l-1.778,1.778l-1.777,0Z" style="fill:url(#_Radial30);"/></g><g><path d="M1068.89,1875.52l5.461,-17.746l-11.603,3.412l0.682,-4.095l-8.873,4.095l1.365,-2.73l-5.46,1.365l-8.191,-1.365l8.191,-4.095l-4.096,-2.048l15.016,-4.778l-5.46,-2.047l6.143,-2.048l5.46,-2.73l-11.603,0.682l7.508,-5.46l-6.143,1.365l-8.873,2.048l4.778,-5.461l-2.73,-2.047l11.603,-6.143l-4.095,-0l6.143,-3.413l-10.239,-2.048l4.096,-1.365l-4.778,-2.73l8.873,-4.778l-4.778,-1.365l6.826,-4.778l4.095,-2.73l-4.778,-1.365l-3.413,-4.095l3.413,-0.683l4.095,0l-0.682,-7.508l4.778,2.73l1.002,-2.145l-1.785,-3.957l2.83,0.642l0,-4.096l2.731,2.048l1.365,-3.413l1.365,4.778l3.412,0.683l-1.365,2.047l2.731,0.683l3.412,-0.683l-2.73,2.731l2.73,1.365l1.365,-2.73l-1.365,5.46l4.778,-2.048l-3.413,4.778l3.413,-1.365l-2.73,4.778l1.365,2.048l5.46,-2.731l-3.412,4.096l4.778,1.365l-4.096,0.682l-3.412,2.73l4.095,1.366l6.143,4.095l-5.461,-0.683l4.778,2.731l-2.73,0.682l2.73,6.143l-5.46,-0.683l11.603,4.096l-4.778,1.365l8.873,2.048l-11.603,0.682l3.413,1.365l-7.508,2.048l-4.778,3.413l9.556,0.682l-2.731,2.73l8.874,-2.73l-3.413,4.778l19.794,1.365l-13.651,5.46l10.238,0l-6.825,4.096l-3.413,-0l5.46,3.413l-15.016,-0l4.778,3.412l-14.334,-3.412l1.366,4.095l-4.096,-1.365l2.048,13.651l-4.095,-2.048l-1.366,1.365l-2.73,-2.047l-2.047,2.047l-2.048,-1.365l-2.73,1.365l-2.048,2.048l-2.048,-0Z" style="fill:url(#_Radial31);"/></g><g><path d="M1363.57,1818.71l2.907,-9.45l-6.179,1.817l0.364,-2.181l-4.725,2.181l0.727,-1.454l-2.908,0.727l-4.361,-0.727l4.361,-2.181l-2.181,-1.09l7.996,-2.544l-2.907,-1.091l3.271,-1.09l2.908,-1.454l-6.179,0.364l3.998,-2.908l-3.271,0.727l-4.725,1.09l2.544,-2.907l-1.454,-1.091l6.179,-3.271l-2.181,0l3.271,-1.817l-5.452,-1.091l2.181,-0.727l-2.544,-1.453l4.725,-2.545l-2.544,-0.726l3.634,-2.545l2.181,-1.454l-2.544,-0.726l-1.817,-2.181l1.817,-0.364l2.181,0l-0.364,-3.998l2.544,1.454l0.534,-1.142l-0.951,-2.107l1.508,0.341l-0,-2.18l1.454,1.09l0.727,-1.817l0.726,2.544l1.818,0.363l-0.727,1.091l1.454,0.363l1.817,-0.363l-1.454,1.454l1.454,0.727l0.727,-1.454l-0.727,2.907l2.544,-1.09l-1.817,2.544l1.817,-0.727l-1.454,2.545l0.727,1.09l2.908,-1.454l-1.817,2.181l2.544,0.727l-2.181,0.363l-1.817,1.454l2.181,0.727l3.271,2.181l-2.908,-0.364l2.544,1.454l-1.454,0.364l1.454,3.271l-2.907,-0.364l6.178,2.181l-2.544,0.727l4.725,1.09l-6.179,0.364l1.818,0.727l-3.998,1.09l-2.545,1.817l5.089,0.364l-1.454,1.454l4.725,-1.454l-1.817,2.544l10.54,0.727l-7.269,2.908l5.452,-0l-3.635,2.18l-1.817,0l2.907,1.818l-7.996,-0l2.545,1.817l-7.633,-1.817l0.727,2.18l-2.181,-0.727l1.09,7.27l-2.18,-1.091l-0.727,0.727l-1.454,-1.09l-1.09,1.09l-1.091,-0.727l-1.454,0.727l-1.09,1.091l-1.09,-0Z" style="fill:url(#_Radial32);"/></g><g><path d="M1248.52,1795.79l2.535,-8.24l-5.387,1.585l0.317,-1.902l-4.12,1.902l0.634,-1.268l-2.535,0.634l-3.803,-0.634l3.803,-1.901l-1.902,-0.951l6.972,-2.218l-2.535,-0.951l2.852,-0.951l2.535,-1.267l-5.387,0.317l3.486,-2.536l-2.852,0.634l-4.12,0.951l2.218,-2.535l-1.267,-0.951l5.387,-2.852l-1.902,-0l2.853,-1.585l-4.754,-0.95l1.901,-0.634l-2.218,-1.268l4.12,-2.218l-2.218,-0.634l3.169,-2.218l1.901,-1.268l-2.218,-0.634l-1.585,-1.901l1.585,-0.317l1.901,-0l-0.317,-3.486l2.219,1.268l0.465,-0.996l-0.829,-1.838l1.314,0.298l0,-1.901l1.268,0.951l0.634,-1.585l0.634,2.218l1.584,0.317l-0.634,0.951l1.268,0.317l1.584,-0.317l-1.267,1.268l1.267,0.633l0.634,-1.267l-0.634,2.535l2.219,-0.951l-1.585,2.219l1.585,-0.634l-1.268,2.218l0.634,0.951l2.535,-1.268l-1.584,1.902l2.218,0.634l-1.901,0.316l-1.585,1.268l1.901,0.634l2.853,1.901l-2.536,-0.317l2.219,1.268l-1.268,0.317l1.268,2.852l-2.536,-0.317l5.388,1.902l-2.218,0.633l4.119,0.951l-5.387,0.317l1.584,0.634l-3.486,0.951l-2.218,1.584l4.437,0.317l-1.268,1.268l4.12,-1.268l-1.585,2.218l9.191,0.634l-6.338,2.535l4.753,0l-3.169,1.902l-1.584,-0l2.535,1.584l-6.972,0l2.218,1.585l-6.655,-1.585l0.634,1.902l-1.901,-0.634l0.95,6.338l-1.901,-0.951l-0.634,0.634l-1.268,-0.95l-0.95,0.95l-0.951,-0.634l-1.268,0.634l-0.95,0.951l-0.951,-0Z" style="fill:url(#_Radial33);"/></g><g><path d="M1374.18,1902.08l2.823,-9.173l-5.998,1.764l0.353,-2.117l-4.587,2.117l0.706,-1.411l-2.823,0.706l-4.233,-0.706l4.233,-2.117l-2.116,-1.058l7.761,-2.47l-2.822,-1.058l3.175,-1.059l2.823,-1.411l-5.998,0.353l3.881,-2.823l-3.175,0.706l-4.587,1.058l2.47,-2.822l-1.412,-1.059l5.998,-3.175l-2.117,-0l3.176,-1.764l-5.292,-1.059l2.116,-0.705l-2.469,-1.411l4.586,-2.47l-2.469,-0.706l3.528,-2.469l2.117,-1.412l-2.47,-0.705l-1.764,-2.117l1.764,-0.353l2.117,-0l-0.353,-3.881l2.47,1.411l0.518,-1.108l-0.923,-2.046l1.463,0.332l0,-2.117l1.411,1.058l0.706,-1.764l0.706,2.47l1.764,0.353l-0.706,1.058l1.411,0.353l1.764,-0.353l-1.411,1.411l1.411,0.706l0.706,-1.411l-0.706,2.822l2.47,-1.058l-1.764,2.47l1.764,-0.706l-1.411,2.47l0.705,1.058l2.823,-1.411l-1.764,2.117l2.47,0.705l-2.117,0.353l-1.764,1.411l2.117,0.706l3.175,2.117l-2.823,-0.353l2.47,1.411l-1.411,0.353l1.411,3.175l-2.822,-0.352l5.997,2.117l-2.469,0.705l4.586,1.059l-5.998,0.352l1.764,0.706l-3.88,1.058l-2.47,1.765l4.939,0.352l-1.411,1.412l4.587,-1.412l-1.765,2.47l10.232,0.706l-7.056,2.822l5.292,0l-3.528,2.117l-1.764,0l2.822,1.764l-7.762,0l2.47,1.764l-7.409,-1.764l0.706,2.117l-2.117,-0.706l1.058,7.057l-2.117,-1.059l-0.705,0.706l-1.412,-1.059l-1.058,1.059l-1.058,-0.706l-1.412,0.706l-1.058,1.058l-1.059,0Z" style="fill:url(#_Radial34);"/></g><g><path d="M1152.35,1908.33l3.902,-12.68l-8.291,2.439l0.487,-2.927l-6.34,2.927l0.975,-1.951l-3.901,0.975l-5.853,-0.975l5.853,-2.927l-2.926,-1.463l10.729,-3.414l-3.902,-1.463l4.39,-1.463l3.901,-1.951l-8.291,0.488l5.365,-3.902l-4.389,0.976l-6.34,1.463l3.414,-3.902l-1.951,-1.463l8.291,-4.389l-2.926,-0l4.389,-2.439l-7.316,-1.463l2.927,-0.975l-3.414,-1.951l6.34,-3.414l-3.414,-0.975l4.877,-3.414l2.926,-1.951l-3.414,-0.976l-2.438,-2.926l2.438,-0.488l2.926,0l-0.487,-5.364l3.414,1.95l0.716,-1.532l-1.276,-2.828l2.023,0.459l-0,-2.926l1.951,1.463l0.975,-2.439l0.975,3.414l2.439,0.488l-0.975,1.463l1.95,0.488l2.439,-0.488l-1.951,1.951l1.951,0.975l0.975,-1.951l-0.975,3.902l3.414,-1.463l-2.439,3.414l2.439,-0.976l-1.951,3.414l0.975,1.463l3.902,-1.95l-2.438,2.926l3.414,0.975l-2.927,0.488l-2.438,1.951l2.926,0.975l4.389,2.927l-3.901,-0.488l3.414,1.951l-1.951,0.487l1.951,4.39l-3.902,-0.488l8.291,2.926l-3.414,0.976l6.34,1.463l-8.291,0.487l2.439,0.976l-5.365,1.463l-3.414,2.439l6.828,0.487l-1.951,1.951l6.34,-1.951l-2.438,3.414l14.143,0.976l-9.754,3.901l7.316,0l-4.877,2.926l-2.439,0l3.902,2.439l-10.73,-0l3.414,2.439l-10.242,-2.439l0.976,2.926l-2.926,-0.975l1.463,9.754l-2.927,-1.463l-0.975,0.975l-1.951,-1.463l-1.463,1.463l-1.463,-0.975l-1.951,0.975l-1.463,1.463l-1.463,0Z" style="fill:url(#_Radial35);"/></g><g><path d="M1184.26,1810.42l3.183,-10.343l-6.763,1.989l0.398,-2.386l-5.171,2.386l0.796,-1.591l-3.183,0.796l-4.773,-0.796l4.773,-2.386l-2.386,-1.194l8.751,-2.784l-3.182,-1.194l3.58,-1.193l3.182,-1.591l-6.762,0.398l4.375,-3.182l-3.58,0.795l-5.171,1.193l2.784,-3.182l-1.591,-1.193l6.763,-3.58l-2.387,-0l3.58,-1.989l-5.967,-1.193l2.387,-0.796l-2.785,-1.591l5.172,-2.784l-2.785,-0.796l3.978,-2.784l2.387,-1.592l-2.785,-0.795l-1.989,-2.387l1.989,-0.398l2.387,0l-0.398,-4.375l2.784,1.591l0.585,-1.25l-1.041,-2.306l1.65,0.374l-0,-2.387l1.591,1.193l0.795,-1.988l0.796,2.784l1.989,0.398l-0.796,1.193l1.591,0.398l1.989,-0.398l-1.591,1.591l1.591,0.796l0.796,-1.591l-0.796,3.182l2.785,-1.193l-1.989,2.784l1.989,-0.796l-1.591,2.785l0.795,1.193l3.182,-1.591l-1.988,2.387l2.784,0.795l-2.387,0.398l-1.989,1.591l2.387,0.796l3.58,2.386l-3.182,-0.397l2.784,1.591l-1.591,0.398l1.591,3.58l-3.182,-0.398l6.762,2.386l-2.784,0.796l5.171,1.193l-6.762,0.398l1.989,0.796l-4.376,1.193l-2.784,1.989l5.569,0.398l-1.592,1.591l5.172,-1.591l-1.989,2.784l11.535,0.796l-7.955,3.182l5.966,-0l-3.977,2.387l-1.989,-0l3.182,1.988l-8.751,0l2.784,1.989l-8.353,-1.989l0.795,2.387l-2.386,-0.795l1.193,7.955l-2.387,-1.193l-0.795,0.795l-1.591,-1.193l-1.194,1.193l-1.193,-0.795l-1.591,0.795l-1.193,1.194l-1.194,-0Z" style="fill:url(#_Radial36);"/></g><g><path d="M1057.51,1752.08l2.822,-9.173l-5.998,1.764l0.353,-2.117l-4.586,2.117l0.705,-1.411l-2.822,0.706l-4.234,-0.706l4.234,-2.117l-2.117,-1.058l7.762,-2.47l-2.823,-1.058l3.176,-1.059l2.822,-1.411l-5.998,0.353l3.881,-2.823l-3.175,0.706l-4.587,1.058l2.47,-2.822l-1.411,-1.059l5.998,-3.175l-2.117,-0l3.175,-1.764l-5.292,-1.059l2.117,-0.705l-2.47,-1.411l4.587,-2.47l-2.47,-0.706l3.528,-2.469l2.117,-1.412l-2.47,-0.705l-1.764,-2.117l1.764,-0.353l2.117,-0l-0.353,-3.881l2.47,1.411l0.518,-1.108l-0.923,-2.046l1.463,0.332l0,-2.117l1.412,1.058l0.705,-1.764l0.706,2.47l1.764,0.353l-0.706,1.058l1.412,0.353l1.764,-0.353l-1.412,1.411l1.412,0.706l0.705,-1.411l-0.705,2.822l2.469,-1.058l-1.764,2.47l1.764,-0.706l-1.411,2.47l0.706,1.058l2.822,-1.411l-1.764,2.117l2.47,0.705l-2.117,0.353l-1.764,1.411l2.117,0.706l3.175,2.117l-2.822,-0.353l2.469,1.411l-1.411,0.353l1.411,3.175l-2.822,-0.352l5.998,2.117l-2.47,0.705l4.587,1.059l-5.998,0.352l1.764,0.706l-3.881,1.058l-2.47,1.765l4.94,0.352l-1.412,1.412l4.587,-1.412l-1.764,2.47l10.231,0.706l-7.056,2.822l5.292,0l-3.528,2.117l-1.764,0l2.823,1.764l-7.762,0l2.469,1.764l-7.409,-1.764l0.706,2.117l-2.117,-0.706l1.059,7.057l-2.117,-1.059l-0.706,0.706l-1.411,-1.059l-1.059,1.059l-1.058,-0.706l-1.411,0.706l-1.059,1.058l-1.058,0Z" style="fill:url(#_Radial37);"/></g><g><path d="M1571.18,1875l3.062,-9.953l-6.507,1.914l0.382,-2.296l-4.976,2.296l0.766,-1.531l-3.063,0.766l-4.593,-0.766l4.593,-2.296l-2.296,-1.149l8.421,-2.679l-3.062,-1.149l3.445,-1.148l3.062,-1.531l-6.507,0.383l4.21,-3.063l-3.445,0.766l-4.976,1.148l2.68,-3.062l-1.532,-1.149l6.508,-3.445l-2.297,0l3.445,-1.914l-5.742,-1.148l2.297,-0.766l-2.679,-1.531l4.976,-2.679l-2.68,-0.766l3.828,-2.679l2.297,-1.532l-2.68,-0.765l-1.913,-2.297l1.913,-0.383l2.297,0l-0.383,-4.21l2.68,1.531l0.562,-1.203l-1.001,-2.22l1.587,0.361l0,-2.297l1.531,1.148l0.766,-1.914l0.766,2.68l1.914,0.383l-0.766,1.148l1.531,0.383l1.914,-0.383l-1.531,1.531l1.531,0.766l0.766,-1.532l-0.766,3.063l2.68,-1.149l-1.914,2.68l1.914,-0.766l-1.531,2.68l0.765,1.148l3.062,-1.531l-1.914,2.297l2.68,0.765l-2.297,0.383l-1.914,1.531l2.297,0.766l3.445,2.297l-3.062,-0.383l2.679,1.531l-1.531,0.383l1.531,3.445l-3.062,-0.383l6.507,2.297l-2.679,0.765l4.976,1.149l-6.507,0.383l1.914,0.765l-4.211,1.149l-2.679,1.914l5.359,0.382l-1.532,1.532l4.977,-1.532l-1.914,2.68l11.101,0.765l-7.656,3.063l5.742,-0l-3.828,2.297l-1.914,-0l3.062,1.913l-8.421,0l2.679,1.914l-8.038,-1.914l0.765,2.297l-2.296,-0.765l1.148,7.655l-2.297,-1.148l-0.765,0.766l-1.532,-1.149l-1.148,1.149l-1.148,-0.766l-1.531,0.766l-1.149,1.148l-1.148,-0Z" style="fill:url(#_Radial38);"/></g><g><path d="M1534.92,1854.17l2.463,-8.004l-5.234,1.539l0.308,-1.847l-4.002,1.847l0.616,-1.232l-2.463,0.616l-3.694,-0.616l3.694,-1.847l-1.847,-0.923l6.772,-2.155l-2.462,-0.924l2.77,-0.923l2.463,-1.232l-5.233,0.308l3.386,-2.463l-2.771,0.616l-4.002,0.924l2.155,-2.463l-1.231,-0.924l5.233,-2.77l-1.847,-0l2.771,-1.54l-4.618,-0.923l1.847,-0.616l-2.155,-1.231l4.002,-2.155l-2.155,-0.616l3.079,-2.155l1.847,-1.231l-2.155,-0.616l-1.539,-1.847l1.539,-0.308l1.847,0l-0.308,-3.386l2.155,1.231l0.452,-0.967l-0.805,-1.785l1.277,0.289l-0,-1.847l1.231,0.924l0.616,-1.539l0.616,2.154l1.539,0.308l-0.616,0.924l1.232,0.308l1.539,-0.308l-1.232,1.231l1.232,0.616l0.615,-1.231l-0.615,2.462l2.155,-0.923l-1.54,2.155l1.54,-0.616l-1.232,2.155l0.616,0.924l2.463,-1.232l-1.539,1.847l2.155,0.616l-1.848,0.308l-1.539,1.231l1.847,0.616l2.771,1.847l-2.463,-0.308l2.155,1.232l-1.231,0.307l1.231,2.771l-2.463,-0.308l5.234,1.847l-2.155,0.616l4.002,0.924l-5.234,0.307l1.54,0.616l-3.387,0.924l-2.155,1.539l4.31,0.308l-1.231,1.231l4.002,-1.231l-1.539,2.155l8.927,0.615l-6.157,2.463l4.618,0l-3.078,1.847l-1.54,0l2.463,1.54l-6.773,-0l2.155,1.539l-6.465,-1.539l0.616,1.847l-1.847,-0.616l0.924,6.157l-1.847,-0.924l-0.616,0.616l-1.232,-0.923l-0.923,0.923l-0.924,-0.616l-1.231,0.616l-0.924,0.924l-0.923,-0Z" style="fill:url(#_Radial39);"/></g></g></g><defs><linearGradient id="_Linear1" x1="0" y1="0" x2="1" y2="0" gradientUnits="userSpaceOnUse" gradientTransform="matrix(947.304,530.381,-530.381,947.304,4554.78,969.619)"><stop offset="0" style="stop-color:#383d40;stop-opacity:1"/><stop offset="0" style="stop-color:#383d40;stop-opacity:1"/><stop offset="1" style="stop-color:#040505;stop-opacity:1"/></linearGradient><radialGradient id="_Radial3" cx="0" cy="0" r="1" gradientUnits="userSpaceOnUse" gradientTransform="matrix(-21.6144,-6.84001,16.2971,-51.4987,4199.35,1770.66)"><stop offset="0" style="stop-color:#5d6c5c;stop-opacity:1"/><stop offset="0.44" style="stop-color:#5e7058;stop-opacity:1"/><stop offset="0.7" style="stop-color:#638345;stop-opacity:1"/><stop offset="1" style="stop-color:#afcc56;stop-opacity:1"/></radialGradient><radialGradient id="_Radial4" cx="0" cy="0" r="1" gradientUnits="userSpaceOnUse" gradientTransform="matrix(-17.4292,-5.51557,13.1414,-41.5269,4154.35,1744.04)"><stop offset="0" style="stop-color:#5d6c5c;stop-opacity:1"/><stop offset="0.44" style="stop-color:#5e7058;stop-opacity:1"/><stop offset="0.7" style="stop-color:#638345;stop-opacity:1"/><stop offset="1" style="stop-color:#afcc56;stop-opacity:1"/></radialGradient><radialGradient id="_Radial5" cx="0" cy="0" r="1" gradientUnits="userSpaceOnUse" gradientTransform="matrix(-18.8459,-5.9639,14.2096,-44.9024,4311.13,1778.12)"><stop offset="0" style="stop-color:#5d6c5c;stop-opacity:1"/><stop offset="0.44" style="stop-color:#5e7058;stop-opacity:1"/><stop offset="0.7" style="stop-color:#638345;stop-opacity:1"/><stop offset="1" style="stop-color:#afcc56;stop-opacity:1"/></radialGradient><radialGradient id="_Radial6" cx="0" cy="0" r="1" gradientUnits="userSpaceOnUse" gradientTransform="matrix(-21.6144,-6.84001,16.2971,-51.4987,4218.1,1839.41)"><stop offset="0" style="stop-color:#5d6c5c;stop-opacity:1"/><stop offset="0.44" style="stop-color:#5e7058;stop-opacity:1"/><stop offset="0.7" style="stop-color:#638345;stop-opacity:1"/><stop offset="1" style="stop-color:#afcc56;stop-opacity:1"/></radialGradient><radialGradient id="_Radial7" cx="0" cy="0" r="1" gradientUnits="userSpaceOnUse" gradientTransform="matrix(-18.8459,-5.9639,14.2096,-44.9024,4329.88,1846.87)"><stop offset="0" style="stop-color:#5d6c5c;stop-opacity:1"/><stop offset="0.44" style="stop-color:#5e7058;stop-opacity:1"/><stop offset="0.7" style="stop-color:#638345;stop-opacity:1"/><stop offset="1" style="stop-color:#afcc56;stop-opacity:1"/></radialGradient><radialGradient id="_Radial8" cx="0" cy="0" r="1" gradientUnits="userSpaceOnUse" gradientTransform="matrix(-17.4292,-5.51557,13.1414,-41.5269,4173.1,1812.79)"><stop offset="0" style="stop-color:#5d6c5c;stop-opacity:1"/><stop offset="0.44" style="stop-color:#5e7058;stop-opacity:1"/><stop offset="0.7" style="stop-color:#638345;stop-opacity:1"/><stop offset="1" style="stop-color:#afcc56;stop-opacity:1"/></radialGradient><radialGradient id="_Radial9" cx="0" cy="0" r="1" gradientUnits="userSpaceOnUse" gradientTransform="matrix(-21.6144,-6.84001,16.2971,-51.4987,4428.52,1791.5)"><stop offset="0" style="stop-color:#5d6c5c;stop-opacity:1"/><stop offset="0.44" style="stop-color:#5e7058;stop-opacity:1"/><stop offset="0.7" style="stop-color:#638345;stop-opacity:1"/><stop offset="1" style="stop-color:#afcc56;stop-opacity:1"/></radialGradient><radialGradient id="_Radial10" cx="0" cy="0" r="1" gradientUnits="userSpaceOnUse" gradientTransform="matrix(-14.1097,-4.4651,10.6386,-33.6179,4362.29,1741.59)"><stop offset="0" style="stop-color:#5d6c5c;stop-opacity:1"/><stop offset="0.44" style="stop-color:#5e7058;stop-opacity:1"/><stop offset="0.7" style="stop-color:#638345;stop-opacity:1"/><stop offset="1" style="stop-color:#afcc56;stop-opacity:1"/></radialGradient><radialGradient id="_Radial11" cx="0" cy="0" r="1" gradientUnits="userSpaceOnUse" gradientTransform="matrix(-17.4292,-5.51557,13.1414,-41.5269,4383.52,1764.88)"><stop offset="0" style="stop-color:#5d6c5c;stop-opacity:1"/><stop offset="0.44" style="stop-color:#5e7058;stop-opacity:1"/><stop offset="0.7" style="stop-color:#638345;stop-opacity:1"/><stop offset="1" style="stop-color:#afcc56;stop-opacity:1"/></radialGradient><radialGradient id="_Radial12" cx="0" cy="0" r="1" gradientUnits="userSpaceOnUse" gradientTransform="matrix(-36.7586,-11.6325,27.7156,-87.5812,4224.97,1772.9)"><stop offset="0" style="stop-color:#5d6c5c;stop-opacity:1"/><stop offset="0.44" style="stop-color:#5e7058;stop-opacity:1"/><stop offset="0.7" style="stop-color:#638345;stop-opacity:1"/><stop offset="1" style="stop-color:#afcc56;stop-opacity:1"/></radialGradient><radialGradient id="_Radial13" cx="0" cy="0" r="1" gradientUnits="userSpaceOnUse" gradientTransform="matrix(-35.2424,-11.1527,26.5724,-83.9689,4146.03,1806.23)"><stop offset="0" style="stop-color:#5d6c5c;stop-opacity:1"/><stop offset="0.44" style="stop-color:#5e7058;stop-opacity:1"/><stop offset="0.7" style="stop-color:#638345;stop-opacity:1"/><stop offset="1" style="stop-color:#afcc56;stop-opacity:1"/></radialGradient><radialGradient id="_Radial14" cx="0" cy="0" r="1" gradientUnits="userSpaceOnUse" gradientTransform="matrix(-31.2315,-9.88339,23.5482,-74.4124,4030.09,1795.12)"><stop offset="0" style="stop-color:#5d6c5c;stop-opacity:1"/><stop offset="0.44" style="stop-color:#5e7058;stop-opacity:1"/><stop offset="0.7" style="stop-color:#638345;stop-opacity:1"/><stop offset="1" style="stop-color:#afcc56;stop-opacity:1"/></radialGradient><radialGradient id="_Radial15" cx="0" cy="0" r="1" gradientUnits="userSpaceOnUse" gradientTransform="matrix(-35.2424,-11.1527,26.5724,-83.9689,4213.63,1869.71)"><stop offset="0" style="stop-color:#5d6c5c;stop-opacity:1"/><stop offset="0.44" style="stop-color:#5e7058;stop-opacity:1"/><stop offset="0.7" style="stop-color:#638345;stop-opacity:1"/><stop offset="1" style="stop-color:#afcc56;stop-opacity:1"/></radialGradient><radialGradient id="_Radial16" cx="0" cy="0" r="1" gradientUnits="userSpaceOnUse" gradientTransform="matrix(-40.5903,-12.845,30.6047,-96.7108,3882.33,1840.76)"><stop offset="0" style="stop-color:#5d6c5c;stop-opacity:1"/><stop offset="0.44" style="stop-color:#5e7058;stop-opacity:1"/><stop offset="0.7" style="stop-color:#638345;stop-opacity:1"/><stop offset="1" style="stop-color:#afcc56;stop-opacity:1"/></radialGradient><radialGradient id="_Radial17" cx="0" cy="0" r="1" gradientUnits="userSpaceOnUse" gradientTransform="matrix(-21.6144,-6.84001,16.2971,-51.4987,3945.19,1793.58)"><stop offset="0" style="stop-color:#5d6c5c;stop-opacity:1"/><stop offset="0.44" style="stop-color:#5e7058;stop-opacity:1"/><stop offset="0.7" style="stop-color:#638345;stop-opacity:1"/><stop offset="1" style="stop-color:#afcc56;stop-opacity:1"/></radialGradient><radialGradient id="_Radial18" cx="0" cy="0" r="1" gradientUnits="userSpaceOnUse" gradientTransform="matrix(-18.8459,-5.9639,14.2096,-44.9024,4056.97,1801.03)"><stop offset="0" style="stop-color:#5d6c5c;stop-opacity:1"/><stop offset="0.44" style="stop-color:#5e7058;stop-opacity:1"/><stop offset="0.7" style="stop-color:#638345;stop-opacity:1"/><stop offset="1" style="stop-color:#afcc56;stop-opacity:1"/></radialGradient><radialGradient id="_Radial19" cx="0" cy="0" r="1" gradientUnits="userSpaceOnUse" gradientTransform="matrix(-20.9814,-6.63967,15.8197,-49.9903,4173.64,1850.5)"><stop offset="0" style="stop-color:#5d6c5c;stop-opacity:1"/><stop offset="0.44" style="stop-color:#5e7058;stop-opacity:1"/><stop offset="0.7" style="stop-color:#638345;stop-opacity:1"/><stop offset="1" style="stop-color:#afcc56;stop-opacity:1"/></radialGradient><radialGradient id="_Radial20" cx="0" cy="0" r="1" gradientUnits="userSpaceOnUse" gradientTransform="matrix(-29.0032,-9.17823,21.8681,-69.1033,3990.49,1879.19)"><stop offset="0" style="stop-color:#5d6c5c;stop-opacity:1"/><stop offset="0.44" style="stop-color:#5e7058;stop-opacity:1"/><stop offset="0.7" style="stop-color:#638345;stop-opacity:1"/><stop offset="1" style="stop-color:#afcc56;stop-opacity:1"/></radialGradient><radialGradient id="_Radial21" cx="0" cy="0" r="1" gradientUnits="userSpaceOnUse" gradientTransform="matrix(-23.6553,-7.48586,17.8359,-56.3613,4011.4,1808.94)"><stop offset="0" style="stop-color:#5d6c5c;stop-opacity:1"/><stop offset="0.44" style="stop-color:#5e7058;stop-opacity:1"/><stop offset="0.7" style="stop-color:#638345;stop-opacity:1"/><stop offset="1" style="stop-color:#afcc56;stop-opacity:1"/></radialGradient><radialGradient id="_Radial22" cx="0" cy="0" r="1" gradientUnits="userSpaceOnUse" gradientTransform="matrix(-17.4292,-5.51557,13.1414,-41.5269,3900.19,1766.96)"><stop offset="0" style="stop-color:#5d6c5c;stop-opacity:1"/><stop offset="0.44" style="stop-color:#5e7058;stop-opacity:1"/><stop offset="0.7" style="stop-color:#638345;stop-opacity:1"/><stop offset="1" style="stop-color:#afcc56;stop-opacity:1"/></radialGradient><radialGradient id="_Radial23" cx="0" cy="0" r="1" gradientUnits="userSpaceOnUse" gradientTransform="matrix(-22.764,-7.2038,17.1638,-54.2377,4302.14,1858.13)"><stop offset="0" style="stop-color:#5d6c5c;stop-opacity:1"/><stop offset="0.44" style="stop-color:#5e7058;stop-opacity:1"/><stop offset="0.7" style="stop-color:#638345;stop-opacity:1"/><stop offset="1" style="stop-color:#afcc56;stop-opacity:1"/></radialGradient><radialGradient id="_Radial24" cx="0" cy="0" r="1" gradientUnits="userSpaceOnUse" gradientTransform="matrix(-18.3074,-5.79349,13.8036,-43.6194,4272.25,1845.32)"><stop offset="0" style="stop-color:#5d6c5c;stop-opacity:1"/><stop offset="0.44" style="stop-color:#5e7058;stop-opacity:1"/><stop offset="0.7" style="stop-color:#638345;stop-opacity:1"/><stop offset="1" style="stop-color:#afcc56;stop-opacity:1"/></radialGradient><linearGradient id="_Linear25" x1="0" y1="0" x2="1" y2="0" gradientUnits="userSpaceOnUse" gradientTransform="matrix(-361.55,398.363,-398.363,-361.55,551.133,909.97)"><stop offset="0" style="stop-color:#383d40;stop-opacity:1"/><stop offset="0" style="stop-color:#383d40;stop-opacity:1"/><stop offset="1" style="stop-color:#040505;stop-opacity:1"/></linearGradient><radialGradient id="_Radial27" cx="0" cy="0" r="1" gradientUnits="userSpaceOnUse" gradientTransform="matrix(-59.8417,-18.9373,45.12,-142.579,1041.47,1782.2)"><stop offset="0" style="stop-color:#5d6c5c;stop-opacity:1"/><stop offset="0.44" style="stop-color:#5e7058;stop-opacity:1"/><stop offset="0.7" style="stop-color:#638345;stop-opacity:1"/><stop offset="1" style="stop-color:#afcc56;stop-opacity:1"/></radialGradient><radialGradient id="_Radial28" cx="0" cy="0" r="1" gradientUnits="userSpaceOnUse" gradientTransform="matrix(-46.8171,-14.8156,35.2996,-111.547,1323.29,1811.44)"><stop offset="0" style="stop-color:#5d6c5c;stop-opacity:1"/><stop offset="0.44" style="stop-color:#5e7058;stop-opacity:1"/><stop offset="0.7" style="stop-color:#638345;stop-opacity:1"/><stop offset="1" style="stop-color:#afcc56;stop-opacity:1"/></radialGradient><radialGradient id="_Radial29" cx="0" cy="0" r="1" gradientUnits="userSpaceOnUse" gradientTransform="matrix(-41.4889,-13.1294,31.2822,-98.8517,1183.11,1769.01)"><stop offset="0" style="stop-color:#5d6c5c;stop-opacity:1"/><stop offset="0.44" style="stop-color:#5e7058;stop-opacity:1"/><stop offset="0.7" style="stop-color:#638345;stop-opacity:1"/><stop offset="1" style="stop-color:#afcc56;stop-opacity:1"/></radialGradient><radialGradient id="_Radial30" cx="0" cy="0" r="1" gradientUnits="userSpaceOnUse" gradientTransform="matrix(-46.8171,-14.8156,35.2996,-111.547,1471.21,1870.86)"><stop offset="0" style="stop-color:#5d6c5c;stop-opacity:1"/><stop offset="0.44" style="stop-color:#5e7058;stop-opacity:1"/><stop offset="0.7" style="stop-color:#638345;stop-opacity:1"/><stop offset="1" style="stop-color:#afcc56;stop-opacity:1"/></radialGradient><radialGradient id="_Radial31" cx="0" cy="0" r="1" gradientUnits="userSpaceOnUse" gradientTransform="matrix(-53.9215,-17.0638,40.6562,-128.474,1100.29,1840.71)"><stop offset="0" style="stop-color:#5d6c5c;stop-opacity:1"/><stop offset="0.44" style="stop-color:#5e7058;stop-opacity:1"/><stop offset="0.7" style="stop-color:#638345;stop-opacity:1"/><stop offset="1" style="stop-color:#afcc56;stop-opacity:1"/></radialGradient><radialGradient id="_Radial32" cx="0" cy="0" r="1" gradientUnits="userSpaceOnUse" gradientTransform="matrix(-28.7133,-9.08648,21.6495,-68.4124,1380.29,1800.17)"><stop offset="0" style="stop-color:#5d6c5c;stop-opacity:1"/><stop offset="0.44" style="stop-color:#5e7058;stop-opacity:1"/><stop offset="0.7" style="stop-color:#638345;stop-opacity:1"/><stop offset="1" style="stop-color:#afcc56;stop-opacity:1"/></radialGradient><radialGradient id="_Radial33" cx="0" cy="0" r="1" gradientUnits="userSpaceOnUse" gradientTransform="matrix(-25.0355,-7.92263,18.8765,-59.6498,1263.09,1779.63)"><stop offset="0" style="stop-color:#5d6c5c;stop-opacity:1"/><stop offset="0.44" style="stop-color:#5e7058;stop-opacity:1"/><stop offset="0.7" style="stop-color:#638345;stop-opacity:1"/><stop offset="1" style="stop-color:#afcc56;stop-opacity:1"/></radialGradient><radialGradient id="_Radial34" cx="0" cy="0" r="1" gradientUnits="userSpaceOnUse" gradientTransform="matrix(-27.8723,-8.82035,21.0154,-66.4087,1390.41,1884.09)"><stop offset="0" style="stop-color:#5d6c5c;stop-opacity:1"/><stop offset="0.44" style="stop-color:#5e7058;stop-opacity:1"/><stop offset="0.7" style="stop-color:#638345;stop-opacity:1"/><stop offset="1" style="stop-color:#afcc56;stop-opacity:1"/></radialGradient><radialGradient id="_Radial35" cx="0" cy="0" r="1" gradientUnits="userSpaceOnUse" gradientTransform="matrix(-38.5288,-12.1926,29.0503,-91.7989,1174.79,1883.46)"><stop offset="0" style="stop-color:#5d6c5c;stop-opacity:1"/><stop offset="0.44" style="stop-color:#5e7058;stop-opacity:1"/><stop offset="0.7" style="stop-color:#638345;stop-opacity:1"/><stop offset="1" style="stop-color:#afcc56;stop-opacity:1"/></radialGradient><radialGradient id="_Radial36" cx="0" cy="0" r="1" gradientUnits="userSpaceOnUse" gradientTransform="matrix(-31.4245,-9.94445,23.6937,-74.8721,1202.56,1790.13)"><stop offset="0" style="stop-color:#5d6c5c;stop-opacity:1"/><stop offset="0.44" style="stop-color:#5e7058;stop-opacity:1"/><stop offset="0.7" style="stop-color:#638345;stop-opacity:1"/><stop offset="1" style="stop-color:#afcc56;stop-opacity:1"/></radialGradient><radialGradient id="_Radial37" cx="0" cy="0" r="1" gradientUnits="userSpaceOnUse" gradientTransform="matrix(-27.8723,-8.82035,21.0154,-66.4087,1073.74,1734.09)"><stop offset="0" style="stop-color:#5d6c5c;stop-opacity:1"/><stop offset="0.44" style="stop-color:#5e7058;stop-opacity:1"/><stop offset="0.7" style="stop-color:#638345;stop-opacity:1"/><stop offset="1" style="stop-color:#afcc56;stop-opacity:1"/></radialGradient><radialGradient id="_Radial38" cx="0" cy="0" r="1" gradientUnits="userSpaceOnUse" gradientTransform="matrix(-30.2404,-9.56975,22.8009,-72.051,1588.79,1855.48)"><stop offset="0" style="stop-color:#5d6c5c;stop-opacity:1"/><stop offset="0.44" style="stop-color:#5e7058;stop-opacity:1"/><stop offset="0.7" style="stop-color:#638345;stop-opacity:1"/><stop offset="1" style="stop-color:#afcc56;stop-opacity:1"/></radialGradient><radialGradient id="_Radial39" cx="0" cy="0" r="1" gradientUnits="userSpaceOnUse" gradientTransform="matrix(-24.3201,-7.69625,18.3371,-57.9453,1549.08,1838.47)"><stop offset="0" style="stop-color:#5d6c5c;stop-opacity:1"/><stop offset="0.44" style="stop-color:#5e7058;stop-opacity:1"/><stop offset="0.7" style="stop-color:#638345;stop-opacity:1"/><stop offset="1" style="stop-color:#afcc56;stop-opacity:1"/></radialGradient></defs></svg>