<?xml version="1.0" encoding="UTF-8" standalone="no"?>
<!DOCTYPE svg PUBLIC "-//W3C//DTD SVG 1.1//EN" "http://www.w3.org/Graphics/SVG/1.1/DTD/svg11.dtd">
<svg width="100%" height="100%" viewBox="0 0 70 70" version="1.1" xmlns="http://www.w3.org/2000/svg" xmlns:xlink="http://www.w3.org/1999/xlink" xml:space="preserve" xmlns:serif="http://www.serif.com/" style="fill-rule:evenodd;clip-rule:evenodd;stroke-miterlimit:1.5;">
    <g transform="matrix(1,0,0,1,-5779,-7052)">
        <g id="Artboard17" transform="matrix(1.16167,0,0,1.16167,-633.394,-2475.98)">
            <rect x="5520" y="8202" width="60.258" height="60.258" style="fill:none;"/>
            <g transform="matrix(0.162328,0,0,0.162328,4439.72,7843.92)">
                <g transform="matrix(0.991501,0,0,0.991501,58.1346,20.3244)">
                    <path d="M6840.5,2215L6993.35,2303.25L6993.35,2479.75L6840.5,2568L6687.65,2479.75L6687.65,2303.25L6840.5,2215Z" style="fill:rgb(212,235,236);stroke:rgb(160,198,211);stroke-width:10.7px;"/>
                </g>
                <g>
                    <g>
                        <g transform="matrix(1,0,0,1,-7,-0.5)">
                            <path d="M6847.5,2315L6942,2469L6753,2469L6847.5,2315Z" style="fill:rgb(212,235,236);stroke:rgb(160,198,211);stroke-width:10.61px;"/>
                        </g>
                        <g transform="matrix(5.30303,-0,-0,5.30303,6654.89,2205.89)">
                        </g>
                        <path d="M6746,2468.5L6688.95,2304" style="fill:none;stroke:rgb(160,198,211);stroke-width:10.61px;stroke-linecap:round;"/>
                        <path d="M6840.5,2314.5L6840.5,2216.5" style="fill:none;stroke:rgb(160,198,211);stroke-width:10.61px;stroke-linecap:round;"/>
                        <path d="M6840.5,2314.5L6688.95,2304" style="fill:none;stroke:rgb(160,198,211);stroke-width:10.61px;stroke-linecap:round;"/>
                        <path d="M6840.5,2314.5L6992.05,2304" style="fill:none;stroke:rgb(160,198,211);stroke-width:10.61px;stroke-linecap:round;"/>
                        <path d="M6935,2468.5L6992.05,2479" style="fill:none;stroke:rgb(160,198,211);stroke-width:10.61px;stroke-linecap:round;"/>
                        <path d="M6935,2468.5L6992.05,2304" style="fill:none;stroke:rgb(160,198,211);stroke-width:10.61px;stroke-linecap:round;"/>
                        <path d="M6746,2468.5L6688.95,2479" style="fill:none;stroke:rgb(160,198,211);stroke-width:10.61px;stroke-linecap:round;"/>
                        <path d="M6746,2468.5L6840.5,2566.5" style="fill:none;stroke:rgb(160,198,211);stroke-width:10.61px;stroke-linecap:round;"/>
                        <path d="M6935,2468.5L6840.5,2566.5" style="fill:none;stroke:rgb(160,198,211);stroke-width:10.61px;stroke-linecap:round;"/>
                    </g>
                </g>
            </g>
        </g>
    </g>
</svg>
