<?xml version="1.0" encoding="UTF-8" standalone="no"?><!DOCTYPE svg PUBLIC "-//W3C//DTD SVG 1.1//EN" "http://www.w3.org/Graphics/SVG/1.1/DTD/svg11.dtd"><svg width="100%" height="100%" viewBox="0 0 2400 2400" version="1.1" xmlns="http://www.w3.org/2000/svg" xmlns:xlink="http://www.w3.org/1999/xlink" xml:space="preserve" xmlns:serif="http://www.serif.com/" style="fill-rule:evenodd;clip-rule:evenodd;stroke-linejoin:round;stroke-miterlimit:2;"><g id="Artboard8"><rect id="Artboard81" serif:id="Artboard8" x="-0" y="0" width="2400" height="2400" style="fill:none;"/><clipPath id="_clip1"><rect id="Artboard82" serif:id="Artboard8" x="-0" y="0" width="2400" height="2400"/></clipPath><g clip-path="url(#_clip1)"><g><g><path d="M1228,160.373c16.134,-0.691 32.355,-1.039 48.656,-1.039c400.257,-0 770.109,213.534 970.238,560.166l-291.072,168.05c-140.089,-242.642 -398.986,-392.116 -679.166,-392.116c-34.436,-0 -68.356,2.224 -101.625,6.537c69.631,-54.904 139.235,-97.104 166.472,-111.206l123.252,-63.814l-114.26,-78.792c-40.926,-28.222 -78.462,-57.895 -122.495,-87.786Zm-558.016,622.531c-110.946,135.296 -177.561,308.312 -177.561,496.763c0,432.83 351.403,784.233 784.233,784.233c280.18,0 539.077,-149.474 679.166,-392.116l291.071,168.05c-200.128,346.632 -569.98,560.166 -970.237,560.166c-407.387,0 -764.28,-217.914 -960.374,-543.437l-27.422,-260.031c-41.242,-391.078 115.333,-781.873 447.565,-1016.37c-8.701,13.165 -16.73,26.554 -23.911,40.131c-27.507,52.002 -43.7,106.554 -42.53,162.614Z" style="fill:url(#_Linear2);"/></g><g><path d="M1228,160.373c16.134,-0.691 32.355,-1.039 48.656,-1.039c400.257,-0 770.109,213.534 970.238,560.166l-291.072,168.05c-140.089,-242.642 -398.986,-392.116 -679.166,-392.116c-34.436,-0 -68.356,2.224 -101.625,6.537c69.631,-54.904 139.235,-97.104 166.472,-111.206l123.252,-63.814l-114.26,-78.792c-40.926,-28.222 -78.462,-57.895 -122.495,-87.786Zm-558.016,622.531c-110.946,135.296 -177.561,308.312 -177.561,496.763c0,432.83 351.403,784.233 784.233,784.233c280.18,0 539.077,-149.474 679.166,-392.116l291.071,168.05c-200.128,346.632 -569.98,560.166 -970.237,560.166c-407.387,0 -764.28,-217.914 -960.374,-543.437l-27.422,-260.031c-41.242,-391.078 115.333,-781.873 447.565,-1016.37c-8.701,13.165 -16.73,26.554 -23.911,40.131c-27.507,52.002 -43.7,106.554 -42.53,162.614Z" style="fill:url(#_Linear3);"/></g><g><path d="M1270.15,1244.09c-67.278,30.45 -125.303,75.115 -170.305,128.304c-51.696,-35.483 -106.763,-78.728 -149.53,-122.131c12.602,-16.756 24,-30.643 33.236,-41.02c50.256,-56.46 104.887,-98.51 162.957,-125.332l63.564,12.263c60.049,11.584 105.297,27.571 138.171,42.78c-36.202,33.548 -64.456,69.369 -73.907,94.156l-4.186,10.98Zm-217.904,196.015c-47.472,82.643 -66.532,177.489 -46.875,268.988c-70.49,-1.237 -149.268,-8.286 -212.246,-24.447c-15.662,-126.165 47.707,-265.769 109.511,-364.755c44.5,42.863 98.504,84.961 149.61,120.214Zm-17.461,351.989c35.343,69.959 97.177,134.777 190.686,186.63c-71.291,-8.472 -131.929,-21.556 -183.219,-38.377c-41.934,-14.897 -82.035,-33.676 -119.871,-55.904c-48.075,-31.576 -80.836,-68.654 -101.656,-108.972c68.702,12.11 146.551,16.788 214.06,16.623Z" style="fill:#fff;"/><path d="M1726.33,1226.25c15.735,3.931 28.745,-0.315 40.336,-8.816c-0.914,18.643 -6.045,32.227 -17.318,38.44c19.733,43.807 118.908,158.656 184.935,169.553c14.732,2.432 48.732,-10.822 67.114,-43.81c3.412,29.522 -2.862,92.962 -19.027,131.265c-37.979,34.299 -90.859,42.155 -152.857,43.305c23.471,-21.222 36.094,-32.155 33.925,-69.369c-4.031,-69.153 -251.681,-236.881 -303.053,-243.33c-47.891,-6.011 -175.094,1.121 -208.188,19.31c13.351,-35.016 79.922,-96.418 138.879,-122.975c0,-0 -47.084,-83.39 -265.223,-125.474c60.135,-38.219 229.76,-35.22 267.361,-18.245c-75.707,-168.131 -406.133,-143.912 -464.55,-250.583c132.746,68.777 349.02,26.622 453.874,94.217c-24.944,-52.726 -172.166,-74.07 -212.878,-189.625c106.219,125.331 374.243,47.08 488.527,223.563l-29.866,-84.894c108.199,89.439 166.743,176.6 184.477,238.536l-36.435,11.331c105.732,71.039 165.487,117.895 229.926,187.743l59.067,-25.955c16.498,28.898 7.919,96.577 -22.541,115.836l-79.541,40.529l15.337,-47.769l-39.937,-35.269l-75.367,15.598l32.694,-41.327c-198.79,-144.496 -331.478,-126.027 -331.478,-126.027c2.437,33.445 40.67,85.665 61.807,104.242Zm-4.658,-247.247l72.911,37.507l32.863,3.863l-98.982,-116.186l16.655,47.525l-23.447,27.291Z" style="fill:#fff;"/><path d="M776.777,869.515c-129.568,-254.05 334.704,-488.16 294.512,-537.524c-617.145,173.202 -923.329,723.008 -865.299,1273.28c-139.958,-480.168 47.158,-786.844 124.329,-925.635c40.689,-73.179 158.824,-214.124 204.803,-237.228c-143.539,-18.832 -436.456,118.53 -535.122,250.876c166.972,-335.253 576.703,-406.694 753.518,-406.552c-26.483,-7.016 -54.767,-12.74 -81.251,-12.205c-12.783,-53.99 -147.737,-228.289 -305.584,-274.528c672.316,77.087 778.224,207.611 936.509,316.762c-85.568,44.303 -546.586,343.034 -317.335,494.362c-15.817,-0.587 -30.848,-0.622 -44.856,-0.114c-48.127,1.746 -85.584,10.851 -106.186,23.335l-58.038,35.17Z" style="fill:#fff;"/><path d="M1278.6,917.238c-156.385,-67.261 -366.714,-80.877 -422.192,-47.258c78.849,12.514 171.922,78.553 184.953,102.265c-172.056,14.461 -338.596,-13.012 -404.35,47.729c97.53,-8.9 233.333,45.474 246.778,70.999c-66.691,29.243 -243.805,31.134 -287.001,172.423c20.34,-14.978 174.43,-65.766 193.921,-69.63c-46.669,38.869 -162.288,257.464 -90.617,411.506c-13.104,-327.263 279.841,-602.837 578.508,-688.034Z" style="fill:#fff;"/></g><g><path d="M1270.15,1244.09c-67.278,30.45 -125.303,75.115 -170.305,128.304c-51.696,-35.483 -106.763,-78.728 -149.53,-122.131c12.602,-16.756 24,-30.643 33.236,-41.02c50.256,-56.46 104.887,-98.51 162.957,-125.332l63.564,12.263c60.049,11.584 105.297,27.571 138.171,42.78c-36.202,33.548 -64.456,69.369 -73.907,94.156l-4.186,10.98Zm-217.904,196.015c-47.472,82.643 -66.532,177.489 -46.875,268.988c-70.49,-1.237 -149.268,-8.286 -212.246,-24.447c-15.662,-126.165 47.707,-265.769 109.511,-364.755c44.5,42.863 98.504,84.961 149.61,120.214Zm-17.461,351.989c35.343,69.959 97.177,134.777 190.686,186.63c-71.291,-8.472 -131.929,-21.556 -183.219,-38.377c-41.934,-14.897 -82.035,-33.676 -119.871,-55.904c-48.075,-31.576 -80.836,-68.654 -101.656,-108.972c68.702,12.11 146.551,16.788 214.06,16.623Z" style="fill:#fff;"/><path d="M1726.33,1226.25c15.735,3.931 28.745,-0.315 40.336,-8.816c-0.914,18.643 -6.045,32.227 -17.318,38.44c19.733,43.807 118.908,158.656 184.935,169.553c14.732,2.432 48.732,-10.822 67.114,-43.81c3.412,29.522 -2.862,92.962 -19.027,131.265c-37.979,34.299 -90.859,42.155 -152.857,43.305c23.471,-21.222 36.094,-32.155 33.925,-69.369c-4.031,-69.153 -251.681,-236.881 -303.053,-243.33c-47.891,-6.011 -175.094,1.121 -208.188,19.31c13.351,-35.016 79.922,-96.418 138.879,-122.975c0,-0 -47.084,-83.39 -265.223,-125.474c60.135,-38.219 229.76,-35.22 267.361,-18.245c-75.707,-168.131 -406.133,-143.912 -464.55,-250.583c132.746,68.777 349.02,26.622 453.874,94.217c-24.944,-52.726 -172.166,-74.07 -212.878,-189.625c106.219,125.331 374.243,47.08 488.527,223.563l-29.866,-84.894c108.199,89.439 166.743,176.6 184.477,238.536l-36.435,11.331c105.732,71.039 165.487,117.895 229.926,187.743l59.067,-25.955c16.498,28.898 7.919,96.577 -22.541,115.836l-79.541,40.529l15.337,-47.769l-39.937,-35.269l-75.367,15.598l32.694,-41.327c-198.79,-144.496 -331.478,-126.027 -331.478,-126.027c2.437,33.445 40.67,85.665 61.807,104.242Zm-4.658,-247.247l72.911,37.507l32.863,3.863l-98.982,-116.186l16.655,47.525l-23.447,27.291Z" style="fill:#fff;"/><path d="M776.777,869.515c-129.568,-254.05 334.704,-488.16 294.512,-537.524c-617.145,173.202 -923.329,723.008 -865.299,1273.28c-139.958,-480.168 47.158,-786.844 124.329,-925.635c40.689,-73.179 158.824,-214.124 204.803,-237.228c-143.539,-18.832 -436.456,118.53 -535.122,250.876c166.972,-335.253 576.703,-406.694 753.518,-406.552c-26.483,-7.016 -54.767,-12.74 -81.251,-12.205c-12.783,-53.99 -147.737,-228.289 -305.584,-274.528c672.316,77.087 778.224,207.611 936.509,316.762c-85.568,44.303 -546.586,343.034 -317.335,494.362c-15.817,-0.587 -30.848,-0.622 -44.856,-0.114c-48.127,1.746 -85.584,10.851 -106.186,23.335l-58.038,35.17Z" style="fill:#fff;"/><path d="M1278.6,917.238c-156.385,-67.261 -366.714,-80.877 -422.192,-47.258c78.849,12.514 171.922,78.553 184.953,102.265c-172.056,14.461 -338.596,-13.012 -404.35,47.729c97.53,-8.9 233.333,45.474 246.778,70.999c-66.691,29.243 -243.805,31.134 -287.001,172.423c20.34,-14.978 174.43,-65.766 193.921,-69.63c-46.669,38.869 -162.288,257.464 -90.617,411.506c-13.104,-327.263 279.841,-602.837 578.508,-688.034Z" style="fill:#fff;"/></g></g></g></g><defs><linearGradient id="_Linear2" x1="0" y1="0" x2="1" y2="0" gradientUnits="userSpaceOnUse" gradientTransform="matrix(-1931.06,2.36393e-13,-2.36393e-13,-1931.06,2262.8,1287.57)"><stop offset="0" style="stop-color:#f6c24f;stop-opacity:1"/><stop offset="1" style="stop-color:#624724;stop-opacity:1"/></linearGradient><linearGradient id="_Linear3" x1="0" y1="0" x2="1" y2="0" gradientUnits="userSpaceOnUse" gradientTransform="matrix(-1931.06,2.36393e-13,-2.36393e-13,-1931.06,2262.8,1287.57)"><stop offset="0" style="stop-color:#f6c24f;stop-opacity:1"/><stop offset="1" style="stop-color:#624724;stop-opacity:1"/></linearGradient></defs></svg>