<?xml version="1.0" encoding="UTF-8" standalone="no"?>
<!DOCTYPE svg PUBLIC "-//W3C//DTD SVG 1.1//EN" "http://www.w3.org/Graphics/SVG/1.1/DTD/svg11.dtd"><svg width="100%"
    height="100%" viewBox="0 0 242 146" version="1.1" xmlns="http://www.w3.org/2000/svg"
    xmlns:xlink="http://www.w3.org/1999/xlink" xml:space="preserve" xmlns:serif="http://www.serif.com/"
    style="fill-rule:evenodd;clip-rule:evenodd;stroke-linejoin:round;stroke-miterlimit:2;">
    <rect id="Artboard16" x="-0" y="0" width="229.167" height="145.833" style="fill:none;" />
    <g>
        <path
            d="M27.872,2.264l-0.081,8.104c1.228,0.234 2.421,0.622 3.551,1.154l4.698,-6.604c1.685,0.926 3.246,2.061 4.648,3.376l-4.829,6.509c0.855,0.911 1.592,1.926 2.194,3.021l7.683,-2.581c0.818,1.739 1.415,3.575 1.775,5.463l-7.733,2.427c0.157,1.24 0.157,2.494 0,3.734l7.733,2.427c-0.36,1.888 -0.957,3.724 -1.775,5.463l-7.683,-2.581c-0.602,1.095 -1.339,2.11 -2.194,3.021l4.829,6.509c-1.402,1.315 -2.963,2.45 -4.648,3.376l-4.698,-6.604c-1.13,0.532 -2.323,0.92 -3.551,1.154l0.081,8.104c-1.907,0.241 -3.837,0.241 -5.744,-0l0.081,-8.104c-1.228,-0.234 -2.421,-0.622 -3.551,-1.154l-4.698,6.604c-1.685,-0.926 -3.246,-2.061 -4.648,-3.376l4.829,-6.509c-0.855,-0.911 -1.592,-1.926 -2.194,-3.021l-7.683,2.581c-0.818,-1.739 -1.415,-3.575 -1.775,-5.463l7.733,-2.427c-0.157,-1.24 -0.157,-2.494 -0,-3.734l-7.733,-2.427c0.36,-1.888 0.957,-3.724 1.775,-5.463l7.683,2.581c0.602,-1.095 1.339,-2.11 2.194,-3.021l-4.829,-6.509c1.402,-1.315 2.963,-2.45 4.648,-3.376l4.698,6.604c1.13,-0.532 2.323,-0.92 3.551,-1.154l-0.081,-8.104c1.907,-0.241 3.837,-0.241 5.744,0Z"
            style="fill:#f2efe5;" />
        <path
            d="M67.708,46.73c9.078,-3.048 15.625,-11.631 15.625,-21.73c0,-10.099 -6.547,-18.682 -15.625,-21.73c2.291,-0.77 4.743,-1.187 7.292,-1.187c12.648,0 22.917,10.269 22.917,22.917c-0,12.648 -10.269,22.917 -22.917,22.917c-2.549,-0 -5.001,-0.417 -7.292,-1.187Z"
            style="fill:#74726a;" />
        <g transform="matrix(43.75,0,0,43.75,222.283,40.4663)"></g><text x="106.884px" y="40.466px"
            style="font-family:'Corbel-Bold', 'Corbel', sans-serif;font-weight:700;font-size:43.75px;fill:#74726a;">AUTO</text>
    </g>
    <g>
        <path
            d="M27.872,50.181l-0.081,8.104c1.228,0.234 2.421,0.621 3.551,1.154l4.698,-6.604c1.685,0.926 3.246,2.06 4.648,3.376l-4.829,6.509c0.855,0.911 1.592,1.926 2.194,3.021l7.683,-2.582c0.818,1.74 1.415,3.575 1.775,5.464l-7.733,2.427c0.157,1.239 0.157,2.494 0,3.734l7.733,2.427c-0.36,1.888 -0.957,3.724 -1.775,5.463l-7.683,-2.581c-0.602,1.095 -1.339,2.11 -2.194,3.021l4.829,6.508c-1.402,1.316 -2.963,2.451 -4.648,3.377l-4.698,-6.604c-1.13,0.532 -2.323,0.92 -3.551,1.154l0.081,8.104c-1.907,0.241 -3.837,0.241 -5.744,-0l0.081,-8.104c-1.228,-0.234 -2.421,-0.622 -3.551,-1.154l-4.698,6.604c-1.685,-0.926 -3.246,-2.061 -4.648,-3.377l4.829,-6.508c-0.855,-0.911 -1.592,-1.926 -2.194,-3.021l-7.683,2.581c-0.818,-1.739 -1.415,-3.575 -1.775,-5.463l7.733,-2.427c-0.157,-1.24 -0.157,-2.495 -0,-3.734l-7.733,-2.427c0.36,-1.889 0.957,-3.724 1.775,-5.464l7.683,2.582c0.602,-1.095 1.339,-2.11 2.194,-3.021l-4.829,-6.509c1.402,-1.316 2.963,-2.45 4.648,-3.376l4.698,6.604c1.13,-0.533 2.323,-0.92 3.551,-1.154l-0.081,-8.104c1.907,-0.241 3.837,-0.241 5.744,-0Z"
            style="fill:#74726a;" />
        <path
            d="M67.708,94.647c9.078,-3.049 15.625,-11.631 15.625,-21.73c0,-10.1 -6.547,-18.682 -15.625,-21.731c2.291,-0.769 4.743,-1.186 7.292,-1.186c12.648,0 22.917,10.269 22.917,22.917c-0,12.648 -10.269,22.916 -22.917,22.916c-2.549,0 -5.001,-0.417 -7.292,-1.186Z"
            style="fill:#f3efe5;" />
        <g transform="matrix(43.75,0,0,43.75,222.283,88.383)"></g><text x="106.884px" y="88.383px"
            style="font-family:'Corbel-Bold', 'Corbel', sans-serif;font-weight:700;font-size:43.75px;fill:#74726a;">AUTO</text>
    </g>
    <g>
        <path
            d="M27.872,98.097l-0.081,8.104c1.228,0.234 2.421,0.622 3.551,1.154l4.698,-6.604c1.685,0.926 3.246,2.061 4.648,3.377l-4.829,6.508c0.855,0.911 1.592,1.926 2.194,3.021l7.683,-2.581c0.818,1.739 1.415,3.575 1.775,5.463l-7.733,2.427c0.157,1.24 0.157,2.495 0,3.734l7.733,2.427c-0.36,1.889 -0.957,3.724 -1.775,5.464l-7.683,-2.582c-0.602,1.095 -1.339,2.11 -2.194,3.021l4.829,6.509c-1.402,1.316 -2.963,2.45 -4.648,3.376l-4.698,-6.604c-1.13,0.533 -2.323,0.92 -3.551,1.154l0.081,8.104c-1.907,0.241 -3.837,0.241 -5.744,0l0.081,-8.104c-1.228,-0.234 -2.421,-0.621 -3.551,-1.154l-4.698,6.604c-1.685,-0.926 -3.246,-2.06 -4.648,-3.376l4.829,-6.509c-0.855,-0.911 -1.592,-1.926 -2.194,-3.021l-7.683,2.582c-0.818,-1.74 -1.415,-3.575 -1.775,-5.464l7.733,-2.427c-0.157,-1.239 -0.157,-2.494 -0,-3.734l-7.733,-2.427c0.36,-1.888 0.957,-3.724 1.775,-5.463l7.683,2.581c0.602,-1.095 1.339,-2.11 2.194,-3.021l-4.829,-6.508c1.402,-1.316 2.963,-2.451 4.648,-3.377l4.698,6.604c1.13,-0.532 2.323,-0.92 3.551,-1.154l-0.081,-8.104c1.907,-0.241 3.837,-0.241 5.744,0Z"
            style="fill:#74726a;" />
        <path
            d="M67.708,142.564c9.078,-3.049 15.625,-11.631 15.625,-21.731c0,-10.099 -6.547,-18.681 -15.625,-21.73c2.291,-0.769 4.743,-1.186 7.292,-1.186c12.648,-0 22.917,10.268 22.917,22.916c-0,12.648 -10.269,22.917 -22.917,22.917c-2.549,0 -5.001,-0.417 -7.292,-1.186Z"
            style="fill:#74726a;" />
        <g transform="matrix(43.75,0,0,43.75,222.283,136.3)"></g><text x="106.884px" y="136.3px"
            style="font-family:'Corbel-Bold', 'Corbel', sans-serif;font-weight:700;font-size:43.75px;fill:#f2efe5;">AUTO</text>
    </g>
</svg>