<?xml version="1.0" encoding="UTF-8" standalone="no"?><!DOCTYPE svg PUBLIC "-//W3C//DTD SVG 1.1//EN" "http://www.w3.org/Graphics/SVG/1.1/DTD/svg11.dtd"><svg width="100%" height="100%" viewBox="0 0 417 265" version="1.1" xmlns="http://www.w3.org/2000/svg" xmlns:xlink="http://www.w3.org/1999/xlink" xml:space="preserve" xmlns:serif="http://www.serif.com/" style="fill-rule:evenodd;clip-rule:evenodd;stroke-linejoin:round;stroke-miterlimit:2;"><g><path d="M6.312,213.893c-3.71,-0.927 -6.312,-4.26 -6.312,-8.084l0,-201.827l416.667,0c-0,0 -0,166.57 -0,201.827c-0,3.824 -2.603,7.157 -6.313,8.084c-32.579,8.145 -180.927,45.232 -200,50c-1.327,0.332 -2.715,0.332 -4.042,0c-19.072,-4.768 -167.42,-41.855 -200,-50Z" style="fill:#4e3c32;"/><path d="M13.596,207.683c-3.676,-0.952 -6.243,-4.269 -6.243,-8.067c-0,-34.493 -0,-195.634 -0,-195.634l401.961,0c-0,0 -0,161.141 -0,195.634c-0,3.798 -2.567,7.115 -6.243,8.067c-31.659,8.205 -173.702,45.014 -192.647,49.924c-1.371,0.355 -2.81,0.355 -4.181,-0c-18.945,-4.91 -160.988,-41.719 -192.647,-49.924Z" style="fill:#4e3c32;"/><path d="M7.353,8.678l-2.209,-0l0,-6.905l6.777,0l-0,2.209l-4.568,0l-0,4.696Zm13.703,-4.696l0,-2.209l9.136,0l-0,2.209l-9.136,0Zm18.271,0l0,-2.209l9.135,0l0,2.209l-9.135,0Zm18.271,0l0,-2.209l9.135,0l0,2.209l-9.135,0Zm18.271,0l-0,-2.209l9.135,0l0,2.209l-9.135,0Zm18.271,0l-0,-2.209l9.136,0l-0,2.209l-9.136,0Zm18.271,0l0,-2.209l9.135,0l0,2.209l-9.135,0Zm18.27,0l0,-2.209l9.136,0l-0,2.209l-9.136,0Zm18.272,0l-0,-2.209l9.135,0l0,2.209l-9.135,0Zm18.271,0l-0,-2.209l9.136,0l-0,2.209l-9.136,0Zm18.271,0l-0,-2.209l9.135,0l0,2.209l-9.135,0Zm18.27,0l0,-2.209l9.136,0l-0,2.209l-9.136,0Zm18.271,0l0,-2.209l9.136,0l-0,2.209l-9.136,0Zm18.271,0l0,-2.209l9.136,0l-0,2.209l-9.136,0Zm18.271,0l0,-2.209l9.135,0l0,2.209l-9.135,0Zm18.271,0l-0,-2.209l9.136,0l-0,2.209l-9.136,0Zm18.272,0l-0,-2.209l9.135,0l0,2.209l-9.135,0Zm18.27,0l-0,-2.209l9.135,0l0,2.209l-9.135,0Zm18.271,0l0,-2.209l9.136,0l-0,2.209l-9.136,0Zm18.271,0l0,-2.209l9.136,0l-0,2.209l-9.136,0Zm18.271,0l-0,-2.209l9.135,0l0,2.209l-9.135,0Zm18.271,0l-0,-2.209l9.135,0l0,2.209l-9.135,0Zm18.271,0l-0,-2.209l6.777,0l-0,6.686l-2.209,-0l-0,-4.477l-4.568,0Zm4.568,13.431l2.209,-0l-0,8.954l-2.209,-0l-0,-8.954Zm-0,17.907l2.209,0l-0,8.954l-2.209,0l-0,-8.954Zm-0,17.908l2.209,0l-0,8.954l-2.209,0l-0,-8.954Zm-0,17.908l2.209,-0l-0,8.953l-2.209,0l-0,-8.953Zm-0,17.907l2.209,0l-0,8.954l-2.209,-0l-0,-8.954Zm-0,17.908l2.209,-0l-0,8.954l-2.209,-0l-0,-8.954Zm-0,17.907l2.209,0l-0,8.954l-2.209,0l-0,-8.954Zm-0,17.908l2.209,0l-0,8.954l-2.209,-0l-0,-8.954Zm-0,17.908l2.209,-0l-0,8.954l-2.209,-0l-0,-8.954Zm-0,17.908l2.209,-0l-0,8.953l-2.209,0l-0,-8.953Zm-0,17.907l2.209,-0l-0,3.127c-0,2.552 -0.917,4.933 -2.473,6.785l-1.691,-1.422c1.23,-1.463 1.955,-3.345 1.955,-5.363l-0,-3.127Zm-9.924,12.148l0.554,2.138l-8.668,2.246l-0.554,-2.138l8.668,-2.246Zm-17.335,4.492l0.554,2.139l-8.668,2.246l-0.554,-2.138l8.668,-2.247Zm-17.335,4.493l0.554,2.138l-8.668,2.246l-0.554,-2.138l8.668,-2.246Zm-17.335,4.492l0.554,2.138l-8.668,2.246l-0.554,-2.138l8.668,-2.246Zm-17.336,4.492l0.555,2.139l-8.668,2.246l-0.554,-2.138l8.667,-2.247Zm-17.334,4.493l0.554,2.138l-8.668,2.246l-0.554,-2.138l8.668,-2.246Zm-17.335,4.492l0.554,2.138l-8.668,2.246l-0.554,-2.138l8.668,-2.246Zm-17.335,4.492l0.554,2.138l-8.668,2.247l-0.554,-2.139l8.668,-2.246Zm-17.335,4.493l0.554,2.138l-8.668,2.246l-0.554,-2.138l8.668,-2.246Zm-17.335,4.492l0.554,2.138l-8.668,2.246l-0.554,-2.138l8.668,-2.246Zm-17.335,4.492l0.554,2.138l-8.668,2.247l-0.554,-2.139l8.668,-2.246Zm-17.37,4.307l0.09,2.207c-1.031,0.041 -2.065,-0.068 -3.071,-0.329l-6.296,-1.631l0.554,-2.139l6.296,1.632c0.795,0.206 1.613,0.293 2.427,0.26Zm-17.39,-4.138l-0.555,2.138l-8.667,-2.246l0.554,-2.138l8.668,2.246Zm-17.336,-4.492l-0.554,2.138l-8.667,-2.246l0.554,-2.138l8.667,2.246Zm-17.335,-4.492l-0.554,2.138l-8.667,-2.246l0.554,-2.139l8.667,2.247Zm-17.335,-4.493l-0.554,2.139l-8.667,-2.247l0.554,-2.138l8.667,2.246Zm-17.335,-4.492l-0.554,2.138l-8.667,-2.246l0.554,-2.138l8.667,2.246Zm-17.334,-4.492l-0.555,2.138l-8.667,-2.246l0.554,-2.138l8.668,2.246Zm-17.335,-4.493l-0.554,2.139l-8.668,-2.246l0.554,-2.139l8.668,2.246Zm-17.335,-4.492l-0.555,2.138l-8.667,-2.246l0.554,-2.138l8.668,2.246Zm-17.336,-4.492l-0.554,2.138l-8.667,-2.246l0.554,-2.138l8.667,2.246Zm-17.335,-4.492l-0.554,2.138l-8.667,-2.246l0.554,-2.139l8.667,2.247Zm-17.335,-4.493l-0.554,2.138l-4.333,-1.123c-1.984,-0.514 -3.713,-1.572 -5.043,-2.99l1.611,-1.511c1.052,1.12 2.418,1.957 3.986,2.363l4.333,1.123Zm-10.576,-12.299l-2.209,-0l0,-9.392l2.209,0l-0,9.392Zm-0,-18.783l-2.209,-0l0,-9.392l2.209,0l-0,9.392Zm-0,-18.783l-2.209,-0l0,-9.391l2.209,-0l-0,9.391Zm-0,-18.783l-2.209,-0l0,-9.392l2.209,0l-0,9.392Zm-0,-18.783l-2.209,-0l0,-9.392l2.209,0l-0,9.392Zm-0,-18.783l-2.209,0l0,-9.391l2.209,-0l-0,9.391Zm-0,-18.783l-2.209,0l0,-9.391l2.209,0l-0,9.391Zm-0,-18.783l-2.209,0l0,-9.391l2.209,0l-0,9.391Zm-0,-18.782l-2.209,-0l0,-9.392l2.209,0l-0,9.392Zm-0,-18.783l-2.209,-0l0,-9.392l2.209,0l-0,9.392Z" style="fill:#dfcfb0;"/></g></svg>