<?xml version="1.0" encoding="UTF-8" standalone="no"?>
<!DOCTYPE svg PUBLIC "-//W3C//DTD SVG 1.1//EN" "http://www.w3.org/Graphics/SVG/1.1/DTD/svg11.dtd"><svg width="100%"
    height="100%" viewBox="0 0 270 180" version="1.1" xmlns="http://www.w3.org/2000/svg"
    xmlns:xlink="http://www.w3.org/1999/xlink" xml:space="preserve" xmlns:serif="http://www.serif.com/"
    style="fill-rule:evenodd;clip-rule:evenodd;stroke-linejoin:round;stroke-miterlimit:2;">
    <g transform="matrix(2.08333,0,0,2.08333,-18656.2,-15458.3)">
        <g id="Artboard16" transform="matrix(0.648045,0,0,0.741379,5378.44,2191.79)">
            <rect x="5519" y="7052" width="179" height="116" style="fill:none;" />
            <g transform="matrix(0.948276,0,0,0.813953,291.337,1312)">
                <g transform="matrix(1,0,0,1.14286,0,-1000.8)">
                    <g transform="matrix(0.895,0,0,0.7975,3278.65,1724.56)">
                        <path
                            d="M2527.51,6682.16l-0.071,7.072c1.071,0.205 2.112,0.543 3.099,1.007l4.1,-5.763c1.47,0.808 2.833,1.798 4.056,2.947l-4.214,5.68c0.746,0.795 1.39,1.681 1.915,2.636l6.705,-2.253c0.714,1.518 1.234,3.12 1.549,4.768l-6.749,2.119c0.137,1.082 0.137,2.176 0,3.258l6.749,2.119c-0.315,1.648 -0.835,3.25 -1.549,4.768l-6.705,-2.253c-0.525,0.955 -1.169,1.841 -1.915,2.636l4.214,5.68c-1.223,1.149 -2.586,2.139 -4.056,2.947l-4.1,-5.763c-0.987,0.464 -2.028,0.802 -3.099,1.007l0.071,7.072c-1.665,0.211 -3.349,0.211 -5.014,0l0.071,-7.072c-1.071,-0.205 -2.112,-0.543 -3.099,-1.007l-4.1,5.763c-1.47,-0.808 -2.833,-1.798 -4.056,-2.947l4.214,-5.68c-0.746,-0.795 -1.39,-1.681 -1.915,-2.636l-6.705,2.253c-0.714,-1.518 -1.234,-3.12 -1.549,-4.768l6.749,-2.119c-0.137,-1.082 -0.137,-2.176 -0,-3.258l-6.749,-2.119c0.315,-1.648 0.835,-3.25 1.549,-4.768l6.705,2.253c0.525,-0.955 1.169,-1.841 1.915,-2.636l-4.214,-5.68c1.223,-1.149 2.586,-2.139 4.056,-2.947l4.1,5.763c0.987,-0.464 2.028,-0.802 3.099,-1.007l-0.071,-7.072c1.665,-0.211 3.349,-0.211 5.014,-0Z"
                            style="fill:#f7f6f5;" />
                    </g>
                    <g transform="matrix(-0.895,0,0,0.7975,7824.03,1724.56)">
                        <path
                            d="M2516.36,6720.97c-7.923,-2.661 -13.637,-10.151 -13.637,-18.965c0,-8.814 5.714,-16.304 13.637,-18.965c-2,-0.671 -4.14,-1.035 -6.364,-1.035c-11.038,0 -20,8.962 -20,20c0,11.038 8.962,20 20,20c2.224,0 4.364,-0.364 6.364,-1.035Z"
                            style="fill:#4d4441;" />
                    </g>
                    <g transform="matrix(1.62727,0,0,1.45,-3462.4,-3240.1)">
                        <g transform="matrix(21,0,0,21,5625.99,7117.42)"></g><text x="5570.6px" y="7117.42px"
                            style="font-family:'Corbel-Bold', 'Corbel';font-weight:700;font-size:21px;fill:#4d4441;">AUTO</text>
                    </g>
                </g>
                <g transform="matrix(1,0,0,1.14286,0,-994.171)">
                    <g transform="matrix(0.895,0,0,0.7975,3278.65,1757.91)">
                        <path
                            d="M2527.51,6682.16l-0.071,7.072c1.071,0.205 2.112,0.543 3.099,1.007l4.1,-5.763c1.47,0.808 2.833,1.798 4.056,2.947l-4.214,5.68c0.746,0.795 1.39,1.681 1.915,2.636l6.705,-2.253c0.714,1.518 1.234,3.12 1.549,4.768l-6.749,2.119c0.137,1.082 0.137,2.176 0,3.258l6.749,2.119c-0.315,1.648 -0.835,3.25 -1.549,4.768l-6.705,-2.253c-0.525,0.955 -1.169,1.841 -1.915,2.636l4.214,5.68c-1.223,1.149 -2.586,2.139 -4.056,2.947l-4.1,-5.763c-0.987,0.464 -2.028,0.802 -3.099,1.007l0.071,7.072c-1.665,0.211 -3.349,0.211 -5.014,0l0.071,-7.072c-1.071,-0.205 -2.112,-0.543 -3.099,-1.007l-4.1,5.763c-1.47,-0.808 -2.833,-1.798 -4.056,-2.947l4.214,-5.68c-0.746,-0.795 -1.39,-1.681 -1.915,-2.636l-6.705,2.253c-0.714,-1.518 -1.234,-3.12 -1.549,-4.768l6.749,-2.119c-0.137,-1.082 -0.137,-2.176 -0,-3.258l-6.749,-2.119c0.315,-1.648 0.835,-3.25 1.549,-4.768l6.705,2.253c0.525,-0.955 1.169,-1.841 1.915,-2.636l-4.214,-5.68c1.223,-1.149 2.586,-2.139 4.056,-2.947l4.1,5.763c0.987,-0.464 2.028,-0.802 3.099,-1.007l-0.071,-7.072c1.665,-0.211 3.349,-0.211 5.014,-0Z"
                            style="fill:#4d4441;" />
                    </g>
                    <g transform="matrix(-0.895,0,0,0.7975,7824.03,1757.91)">
                        <path
                            d="M2516.36,6720.97c-7.923,-2.661 -13.637,-10.151 -13.637,-18.965c0,-8.814 5.714,-16.304 13.637,-18.965c-2,-0.671 -4.14,-1.035 -6.364,-1.035c-11.038,0 -20,8.962 -20,20c0,11.038 8.962,20 20,20c2.224,0 4.364,-0.364 6.364,-1.035Z"
                            style="fill:#f7f6f5;" />
                    </g>
                    <g transform="matrix(1.62727,0,0,1.45,-3462.4,-3206.75)">
                        <g transform="matrix(21,0,0,21,5625.99,7117.42)"></g><text x="5570.6px" y="7117.42px"
                            style="font-family:'Corbel-Bold', 'Corbel';font-weight:700;font-size:21px;fill:#4d4441;">AUTO</text>
                    </g>
                </g>
                <g transform="matrix(1,0,0,1.14286,0,-949.429)">
                    <g transform="matrix(0.895,0,0,0.7975,3278.65,1757.91)">
                        <path
                            d="M2527.51,6682.16l-0.071,7.072c1.071,0.205 2.112,0.543 3.099,1.007l4.1,-5.763c1.47,0.808 2.833,1.798 4.056,2.947l-4.214,5.68c0.746,0.795 1.39,1.681 1.915,2.636l6.705,-2.253c0.714,1.518 1.234,3.12 1.549,4.768l-6.749,2.119c0.137,1.082 0.137,2.176 0,3.258l6.749,2.119c-0.315,1.648 -0.835,3.25 -1.549,4.768l-6.705,-2.253c-0.525,0.955 -1.169,1.841 -1.915,2.636l4.214,5.68c-1.223,1.149 -2.586,2.139 -4.056,2.947l-4.1,-5.763c-0.987,0.464 -2.028,0.802 -3.099,1.007l0.071,7.072c-1.665,0.211 -3.349,0.211 -5.014,0l0.071,-7.072c-1.071,-0.205 -2.112,-0.543 -3.099,-1.007l-4.1,5.763c-1.47,-0.808 -2.833,-1.798 -4.056,-2.947l4.214,-5.68c-0.746,-0.795 -1.39,-1.681 -1.915,-2.636l-6.705,2.253c-0.714,-1.518 -1.234,-3.12 -1.549,-4.768l6.749,-2.119c-0.137,-1.082 -0.137,-2.176 -0,-3.258l-6.749,-2.119c0.315,-1.648 0.835,-3.25 1.549,-4.768l6.705,2.253c0.525,-0.955 1.169,-1.841 1.915,-2.636l-4.214,-5.68c1.223,-1.149 2.586,-2.139 4.056,-2.947l4.1,5.763c0.987,-0.464 2.028,-0.802 3.099,-1.007l-0.071,-7.072c1.665,-0.211 3.349,-0.211 5.014,-0Z"
                            style="fill:#4d4441;" />
                    </g>
                    <g transform="matrix(-0.895,0,0,0.7975,7824.03,1757.91)">
                        <path
                            d="M2516.36,6720.97c-7.923,-2.661 -13.637,-10.151 -13.637,-18.965c0,-8.814 5.714,-16.304 13.637,-18.965c-2,-0.671 -4.14,-1.035 -6.364,-1.035c-11.038,0 -20,8.962 -20,20c0,11.038 8.962,20 20,20c2.224,0 4.364,-0.364 6.364,-1.035Z"
                            style="fill:#4d4441;" />
                    </g>
                    <g transform="matrix(1.62727,0,0,1.45,-3462.4,-3206.75)">
                        <g transform="matrix(21,0,0,21,5625.99,7117.42)"></g><text x="5570.6px" y="7117.42px"
                            style="font-family:'Corbel-Bold', 'Corbel';font-weight:700;font-size:21px;fill:#f7f6f5;">AUTO</text>
                    </g>
                </g>
            </g>
        </g>
    </g>
</svg>