<?xml version="1.0" encoding="UTF-8" standalone="no"?><!DOCTYPE svg PUBLIC "-//W3C//DTD SVG 1.1//EN" "http://www.w3.org/Graphics/SVG/1.1/DTD/svg11.dtd"><svg width="100%" height="100%" viewBox="0 0 5334 1325" version="1.1" xmlns="http://www.w3.org/2000/svg" xmlns:xlink="http://www.w3.org/1999/xlink" xml:space="preserve" xmlns:serif="http://www.serif.com/" style="fill-rule:evenodd;clip-rule:evenodd;stroke-linejoin:round;stroke-miterlimit:2;"><g><path d="M4710.42,356.25c127.43,-3.125 277.03,-56.259 464.583,-39.583c187.553,16.675 383.333,-95.834 383.333,-95.834l58.334,587.5l-1766.67,-131.25c-0,0 -914.116,-14.499 -509.624,-185.017c916.32,-110.416 717.663,-210.43 1070.04,-156.649c168.865,25.772 199.789,23.29 300,20.833Z" style="fill:url(#_Linear1);"/><clipPath id="_clip2"><path d="M4710.42,356.25c127.43,-3.125 277.03,-56.259 464.583,-39.583c187.553,16.675 383.333,-95.834 383.333,-95.834l58.334,587.5l-1766.67,-131.25c-0,0 -914.116,-14.499 -509.624,-185.017c916.32,-110.416 717.663,-210.43 1070.04,-156.649c168.865,25.772 199.789,23.29 300,20.833Z"/></clipPath><g clip-path="url(#_clip2)"><path d="M4555.28,541.667c-37.098,4.525 -113.788,24.162 -72.916,10.416c40.872,-13.745 120.08,-14.034 169.722,-37.5c56.199,-26.564 60.763,-47.609 25,-54.166c-35.763,-6.558 -56.803,-16.293 -22.916,-22.07c99.607,-16.981 81.178,-22.085 131.25,-27.93c31.302,-3.654 17.04,-7.236 69.998,-5.776c27.145,0.748 93.123,-16.127 102.918,-17.141c13.01,-1.347 73.509,-12.568 17.039,-21.186c-51.891,-7.919 159.681,-5.501 174.628,-5.897c10.454,-0.277 40.209,-1.946 22.917,-6.25c-26.19,-6.52 131.379,6.789 40.832,-10.272c-39.643,-7.47 58.622,-34.7 82.701,-32.195c11.372,1.183 -92.119,24.197 -56.867,32.05c87.033,19.387 -23.702,13.199 -44.206,14.583c-8.105,0.548 -9.625,5.665 -26.627,6.25c-9.355,0.323 -231.404,-1.668 -137.865,10.76c24.554,3.262 -14.174,14.628 -32.968,18.407c-22.819,4.588 -31.77,0.59 -43.75,4.167c-17.246,5.149 -60.167,16.553 -104.057,13.844c-27.675,-1.708 -39.011,4.61 -64.241,6.112c-84.421,5.023 -47.98,15.955 -71.286,18.391c-29.221,3.055 -88.862,10.344 -33.333,13.736c34.872,2.13 63.989,23.458 47.504,32.332c-19.439,10.465 -40.058,30.691 -64.171,32.251c-76.67,4.961 -65.444,21.734 -109.306,27.084Z" style="fill:#e5c9b0;"/></g><path d="M5333.33,459.06l0,999.273l-5333.33,0l0,-1456.64c0,-0 215.028,12.961 531.666,107.944c148.579,44.569 468.06,133.115 689.948,153.903c408.544,38.275 725.42,218.112 1370.05,218.112c91.632,-0 865.076,-80.628 953.116,-75.562c627.684,36.122 347.899,112.006 711.875,134.072c233.386,14.15 250.112,-47.13 562.554,-48.061c248.959,-0.741 514.121,-33.043 514.121,-33.043Z" style="fill:url(#_Linear3);"/><clipPath id="_clip4"><path d="M5333.33,459.06l0,999.273l-5333.33,0l0,-1456.64c0,-0 215.028,12.961 531.666,107.944c148.579,44.569 468.06,133.115 689.948,153.903c408.544,38.275 725.42,218.112 1370.05,218.112c91.632,-0 865.076,-80.628 953.116,-75.562c627.684,36.122 347.899,112.006 711.875,134.072c233.386,14.15 250.112,-47.13 562.554,-48.061c248.959,-0.741 514.121,-33.043 514.121,-33.043Z"/></clipPath><g clip-path="url(#_clip4)"><path d="M1304.93,1458.33c69.088,-230.293 592.831,-461.86 2107.57,-470.833c667.036,-3.952 613.125,-100.81 785.417,-162.5c53.234,-19.061 133.852,-76.715 95.833,-95.833c-38.019,-19.118 -374.767,-101.286 -312.5,-125c62.267,-23.714 187.424,-35.595 214,-68.78c194.579,-32.273 286.746,-37.981 341.248,-18.864c-67.691,39.939 -288.468,78.499 -176.081,93.894c112.387,15.394 94.666,54.293 312.5,58.333c217.834,4.04 281.683,41.116 212.5,54.167c-69.184,13.051 -106.713,-1.689 -31.25,43.75c75.462,45.438 66.414,76.336 31.25,91.666c-35.165,15.33 -191.874,101.382 -137.5,133.334c391.139,229.845 -948.485,466.666 -948.485,466.666l-2494.5,0Z" style="fill:#e5c9b0;"/></g></g><defs><linearGradient id="_Linear1" x1="0" y1="0" x2="1" y2="0" gradientUnits="userSpaceOnUse" gradientTransform="matrix(6.25,308.333,-57.9489,1.17464,4064.58,333.333)"><stop offset="0" style="stop-color:#bbc473;stop-opacity:1"/><stop offset="1" style="stop-color:#829d3c;stop-opacity:1"/></linearGradient><linearGradient id="_Linear3" x1="0" y1="0" x2="1" y2="0" gradientUnits="userSpaceOnUse" gradientTransform="matrix(5333.33,602.862,-602.862,5333.33,1.09139e-11,184.422)"><stop offset="0" style="stop-color:#868d4e;stop-opacity:1"/><stop offset="0.08" style="stop-color:#98a45d;stop-opacity:1"/><stop offset="0.17" style="stop-color:#a9ba6c;stop-opacity:1"/><stop offset="0.42" style="stop-color:#b1c473;stop-opacity:1"/><stop offset="1" style="stop-color:#abbc57;stop-opacity:1"/></linearGradient></defs></svg>