<?xml version="1.0" encoding="UTF-8" standalone="no"?><!DOCTYPE svg PUBLIC "-//W3C//DTD SVG 1.1//EN" "http://www.w3.org/Graphics/SVG/1.1/DTD/svg11.dtd"><svg width="100%" height="100%" viewBox="0 0 2609 2290" version="1.1" xmlns="http://www.w3.org/2000/svg" xmlns:xlink="http://www.w3.org/1999/xlink" xml:space="preserve" xmlns:serif="http://www.serif.com/" style="fill-rule:evenodd;clip-rule:evenodd;stroke-linejoin:round;stroke-miterlimit:2;"><g><g><path d="M550.438,2078.93c47.504,6.233 214.904,1.126 241.575,-12.283c26.672,-13.41 7.565,-33.859 -16.378,-36.851c-23.943,-2.991 -119.523,-45.471 -118.74,-69.606c0.783,-24.135 15.595,-206.792 16.378,-233.386c14.122,2.15 20.458,-3.933 32.756,-8.189c4.088,-61.722 -0.378,-98.67 -12.284,-126.929c-11.905,-28.259 -107.66,-20.004 -171.968,-12.283c-64.308,7.72 -299.872,-131.832 -311.181,-77.796c-11.31,54.036 -67.296,124.011 -65.512,139.213c5.555,10.195 25.04,20.903 36.85,20.472c1.887,25.257 26.621,263.276 0,315.276c-3.243,6.335 -6.385,1.551 -20.472,32.756c-6.377,14.126 -8.695,40.224 -7.058,63.393c15.084,4.96 59.46,7.948 80.759,10.308c48.022,5.32 80.547,-9.759 81.889,-24.567c2.863,-31.569 4.172,-76.383 0,-106.457c5.863,-10.006 8.651,-16.687 16.378,-28.661c-5.042,-9.238 -15.368,-26.071 -24.567,-32.756c1.748,-34.963 11.833,-183.522 20.473,-204.725c35.092,7.075 37.829,1.602 37.829,1.602c-1.824,-20.98 -6.385,-58.379 -6.385,-58.379c3.648,-29.189 96.689,27.365 96.689,27.365c27.365,5.473 52.905,7.298 52.905,7.298c-24.628,38.31 -25.54,45.608 -25.54,45.608c34.662,15.506 36.486,11.858 36.486,11.858c-5.473,44.696 24.486,268.48 29.118,357.719Z" style="fill:#623228;"/><path d="M168.339,807.203c-16.824,-12.811 -23.827,-14.521 -72.389,11.738c-31.782,17.185 -67.296,33.932 -65.512,49.134c5.556,10.195 128.915,160.115 139.213,184.252c9.938,23.295 88.852,166.37 110.551,135.118c75.448,-108.663 -15.399,-194.934 -15.399,-194.934c-1.825,-20.98 -96.464,-185.308 -96.464,-185.308Z" style="fill:#623228;"/><path d="M521.777,158.615c9.971,30.054 -7.998,27.208 -4.095,36.851c3.904,9.642 17.495,14.564 16.378,20.472c-1.116,5.908 -10,8.795 -12.283,12.283c-2.284,3.489 8.261,26.333 -0,49.134c-8.262,22.802 -29.863,72.596 -57.323,61.418c-27.46,-11.179 -92.144,11.669 -94.173,-73.701c-2.029,-85.37 16.696,-139.88 69.606,-159.685c52.91,-19.805 71.918,23.175 81.89,53.228Z" style="fill:#423354;"/><path d="M515.109,223.811c0.632,0.617 2.38,1.914 6.668,4.41c12.661,7.374 18.301,6.552 16.378,16.378c-1.923,9.827 -1.92,22.489 4.094,49.134c4.396,19.476 4.462,33.739 0,45.04c-4.462,11.3 -118.844,2.668 -184.252,-36.851c-57.149,-34.529 -63.896,-102.972 -61.417,-118.74c1.848,-11.759 16.798,-39.43 24.567,-53.228c15.908,-28.254 65.441,-36.888 98.268,-40.945c32.827,-4.058 39.678,-45.609 36.85,-53.228c15.106,16.89 9.641,24.591 8.189,28.661c19.471,-5.196 68.868,-0.79 77.795,40.945c-15.283,-14.159 -24.404,-19.912 -28.661,-20.473c11.883,10.499 28.521,32.773 32.756,49.134c-11.607,-11.735 -19.295,-15.94 -24.567,-16.378c8.477,10.621 10.292,24.403 8.189,32.756c-5.391,-14.363 -7.22,-12.115 -12.284,-16.378c6.594,21.443 4.286,22.131 4.095,28.662c-9.457,-12.3 -20.486,-19.797 -32.756,-24.567c4.767,9.577 0.015,47.979 -0,57.323c-6.292,-8.89 -4.108,-21.533 -8.189,-28.662c-2.885,19.772 -13.792,38.202 -8.189,61.417c5.603,23.216 21.233,32.253 28.661,36.851c8.326,-24.395 7.275,-40.756 12.284,-40.945c0.921,-0.035 1.352,-0.168 1.521,-0.316Zm-54.75,41.261c1.148,-14.532 3.758,-54.801 -16.377,-61.417c-20.136,-6.617 -18.599,3.087 -16.378,12.283c2.22,9.196 8.117,51.231 20.472,45.039c11.725,-5.875 -25.203,18.082 -16.378,49.134c2.898,10.195 48.613,20.772 45.039,12.284c-3.573,-8.489 -17.525,-42.792 -16.378,-57.323Z" style="fill:#10100f;"/><path d="M321.147,170.899c-16.99,7.953 -55.447,-48.5 -53.228,-61.418c2.218,-12.917 5.18,-30.213 24.566,-28.661c19.387,1.552 43.124,33.701 49.134,40.945c9.205,11.093 18.425,30.924 -20.472,49.134Z" style="fill:#465a2d;"/><path d="M136.895,56.253c22.954,-0.279 36.816,-11.509 57.323,-28.661c20.506,-17.153 69.18,-42.458 94.173,-16.378c24.992,26.079 45.19,41.927 32.756,73.7c-12.434,31.774 -62.627,32.068 -85.984,53.229c-23.358,21.161 -23.378,26.901 -8.189,49.134c-33.85,-16.297 -36.933,-49.879 -36.851,-61.418c-22.093,11.245 -37.62,18.64 -45.039,32.756c4.84,-27.916 28.003,-59.323 40.945,-65.512c-29.675,14.828 -31.799,32.619 -57.323,36.851c20.635,-12.674 18.055,-20.202 40.945,-49.134c22.889,-28.932 9.898,-20.818 24.567,-32.756c-28.532,12.581 -32.415,14.289 -57.323,8.189Z" style="fill:#10100f;"/><path d="M403.037,1689.95c-8.507,-1.581 -123.102,-110.872 -131.024,-131.024c3.024,-48.428 2.429,-17.103 4.095,-28.661c-17.49,-3.349 -60.547,3.246 -81.89,20.472c-24.08,-31.118 -31.44,-41.548 -24.567,-61.417c6.872,-19.87 52.152,-197.052 53.228,-217.008c1.077,-19.956 136.897,-321.174 135.118,-368.504c-1.778,-47.33 -115.256,-174.275 -126.929,-192.441c-16.234,27.443 -45.527,32.535 -53.228,45.039c-7.702,12.505 8.552,21.082 12.283,32.756c-23.633,8.026 -26.433,6.488 -20.472,16.378c-31.438,29.046 -105.602,65.512 -139.213,61.418c-31.786,-40.581 -12.868,-34.904 -8.189,-45.04c-13.563,-16.521 -28.314,-27.017 -16.378,-49.134c11.936,-22.116 48.77,-128.524 81.89,-155.59c33.12,-27.067 43.092,-128.197 81.89,-143.307c38.798,-15.111 28.476,-59.359 45.039,-65.512c16.563,-6.153 30.583,-20.177 57.323,-24.567c-21.605,-31.755 -20.334,-29.176 -4.094,-36.85c16.239,-7.675 56.282,-45.006 90.078,-45.04c33.796,-0.034 102.251,10.857 155.591,24.567c53.34,13.71 61.182,1.735 81.89,12.284c20.707,10.548 13.914,19.409 8.189,28.661c-5.725,9.252 70.888,198.426 102.362,241.575c31.473,43.149 55.807,59.515 57.323,81.89c1.515,22.374 -42.42,38.413 -28.662,65.511c-42.796,28.924 -135.394,-3.043 -118.74,114.646c16.654,117.69 172.073,375.301 200.63,462.677c28.557,87.377 44.19,187.903 45.039,221.103c-80.333,35.936 -227.292,72.406 -319.37,40.945c-51.03,56.105 -130.705,95.754 -139.212,94.173Z" style="fill:#465a2d;"/><path d="M734.095,754.292c-20.575,0.634 -35.048,4.337 -64.838,14.889c-34.057,12.065 -77.671,33.289 -76.943,48.578c4.836,10.555 113.433,135.896 122.035,160.687c-35.481,22.759 8.401,87.244 43.615,72.837c57.721,-23.615 68.027,-83.67 67.731,-97.265c-0.368,-16.961 -91.6,-199.726 -91.6,-199.726Z" style="fill:#623228;"/><path d="M554.533,383.812c63.585,-26.022 86.153,-18.063 114.645,0c35.57,22.55 85.634,155.835 94.174,188.346c-6.869,21.464 -35.409,52.824 -45.04,53.229c-4.461,-6.054 -11.372,-12.715 -16.378,-24.567c-21.351,2.159 -75.545,0.087 -167.874,98.268c-7.435,7.906 -114.311,-81.194 -122.834,-106.457c-8.524,-25.263 79.721,-182.797 143.307,-208.819Z" style="fill:#928c86;"/></g><g opacity="0.95"><path d="M1526.61,2062.55c1.999,27.695 5.256,54.759 4.095,65.512c-43.661,2.347 -80.303,-4.553 -106.457,-8.189c-28.827,-4.007 -40.43,-5.571 -45.039,-20.472c-4.61,-14.901 10.918,-25.065 32.756,-32.756c21.838,-7.691 112.647,-31.789 114.645,-4.095Z" style="fill:#623228;"/><path d="M1166.29,1964.29c1.999,27.694 1.162,161.215 0,171.968c-43.661,2.347 -76.208,7.73 -102.362,4.095c-28.827,-4.008 -101.166,-21.299 -102.362,-36.851c-4.61,-59.94 76.43,-45.537 90.079,-40.945c-2.429,-13.353 -5.335,-80.945 -9.421,-114.783c-4.227,-34.999 123.111,3.272 124.066,16.516Z" style="fill:#623228;"/><path d="M859.207,1894.68c33.945,-10.178 94.681,52.621 180.157,85.984c85.477,33.364 139.695,-28.885 208.819,16.378c69.124,45.263 88.589,120.218 200.63,106.457c112.041,-13.761 252.405,-89.59 266.142,-126.929c-25.487,-61.967 -32.784,-92.981 -32.784,-92.981c31.926,-6.385 87.921,63.875 122.863,64.32c-3.37,-102.63 -17.099,-334.678 -102.363,-470.867c-85.263,-136.189 -134.783,-279.758 -139.212,-364.409c-4.43,-84.651 -31.709,-364.801 -69.607,-413.543c35.076,-54.216 35.059,-63.045 20.473,-81.89c-14.586,-18.846 -15.29,-25.666 -45.04,-36.851c-29.749,-11.184 -128.168,-130.437 -159.685,-135.118c-31.516,-4.681 -148.959,-7.443 -208.818,53.229c10.376,23.273 28.641,64.817 40.944,77.795c-45.162,5.68 -75.806,40.471 -90.078,90.079c-11.467,39.855 -25.353,133.304 -49.134,188.346c-40.361,93.416 -23.821,321.882 -57.323,393.071c-35.812,76.097 -63.048,186.067 -159.685,257.953c-96.637,71.886 73.701,388.976 73.701,388.976" style="fill:#2d5183;"/><path d="M1152.31,356.224c4.644,45.428 9.694,75.493 18.079,89.005c9.252,1.557 34.022,2.358 36.85,0c8.566,-7.142 -0.645,-52.651 4.095,-73.7c4.74,-21.05 4.493,-36.749 8.189,-53.229c3.696,-16.479 -10.177,-11.387 -16.378,-8.189c-8.346,4.304 -12.159,20.677 -12.284,28.662c-10.285,-15.757 -30.88,-54.412 -40.945,-53.229c-6.843,0.805 -2.251,25.252 2.394,70.68Z" style="fill:#edceb5;"/><g><ellipse cx="1387.4" cy="234.363" rx="61.417" ry="63.465" style="fill:#d5c279;"/><path d="M1473.38,592.631c19.148,9.996 62.862,7.273 77.795,8.189c-42.715,-23.895 -51.498,-42.021 -57.323,-61.417c41.608,36.062 68.658,41.448 94.174,40.944c-37.971,-26.044 -55.675,-36.546 -61.418,-69.606c-5.743,-33.059 -5.687,-45.424 -49.134,-65.512c-43.446,-20.088 -84.332,-53.853 -94.173,-98.267c45.619,25.639 46.244,25.196 53.229,49.133c-1.043,-35.9 -22.793,-36.907 -49.134,-69.606c-26.341,-32.699 7.206,-29.65 -4.095,-45.039c-11.3,-15.39 -57.449,-93.823 -151.496,-85.984c-94.047,7.838 -150.73,81.669 -118.74,122.834c31.99,41.166 43.98,39.427 57.323,45.04c-19.495,-44.009 -25.829,-59.771 -20.473,-77.796c12.654,27.949 37.373,30.183 28.662,85.985c21.208,-56.577 51.277,-88.722 24.567,16.378c-26.711,105.099 -26.478,61.76 -16.378,85.984c10.1,24.223 93.03,5.615 98.267,-20.473c5.238,-26.088 19.103,-2.007 19.103,-2.007c-1.459,62.757 15.549,84.929 30.031,92.086c-11.788,-26.41 -24.048,-52.315 -20.472,-90.079c22.549,70.966 49.528,88.839 69.606,110.552c-14.219,-43.964 -7.185,-51.79 -24.567,-77.796c41.726,68.129 41.378,102.54 90.079,126.929c-20.867,-21.342 -27.943,-46.683 -28.661,-65.511c29.2,36.63 34.08,35.043 53.228,45.039Z" style="fill:#d5c279;"/></g></g><g opacity="0.99"><path d="M1969.2,1040.35l-32.756,-8.189l-24.567,77.795l40.945,24.567l16.378,-94.173Z" style="fill:#3d1e18;"/><path d="M1612.98,503.97c4.441,22.12 3.069,27.645 -20.472,36.85c-23.541,9.205 -33.23,7.013 -36.85,-32.756c-3.62,-39.768 -0.419,-72.07 12.283,-85.984c12.702,-13.914 25.5,-44.625 65.512,-40.945c40.012,3.68 50.307,-13.268 106.457,85.984c56.149,99.252 11.06,44.071 8.189,77.796c-2.821,33.132 -6.289,47.136 -0,57.322c7.974,12.917 15.876,16.629 16.378,16.378c5.312,18.978 57.322,438.111 57.322,438.111l94.174,401.259l-32.756,81.89c-0,0 -98.886,-493.889 -102.363,-536.378c-3.476,-42.488 -33.873,-223.887 -45.039,-282.519c-6.867,-36.059 -7.82,-65.498 -16.378,-73.701c-6.662,-6.387 -13.798,-47.515 -24.319,-63.791c-11.379,-17.602 -25.328,-30.775 -16.626,-34.477c29.107,-12.383 20.473,-16.378 20.473,-16.378c-12.073,-43.919 -26.065,-70.839 -49.134,-81.89c-23.069,-11.051 -50.664,1.791 -45.04,20.473c5.625,18.682 3.749,10.635 8.189,32.756Z" style="fill:#78392a;"/><path d="M1952.82,1036.25c-16.124,6.96 -29.37,48.252 -28.661,61.418c1.378,25.628 16.378,28.661 16.378,28.661c-29.59,-6.153 -141.983,-83.651 -163.78,-98.268c-14.94,-10.018 -26.68,-58.452 -28.661,-90.079c-1.523,-24.307 6.835,-22.907 20.472,-28.661c-11.344,12.585 28.029,14.083 35.866,9.473c14.198,3.736 30.896,12.94 29.646,23.283c-1.25,10.343 0.876,37.516 -0,45.039c25.261,26.875 103.479,26.856 118.74,49.134Z" style="fill:#623228;"/><path d="M2431.87,2276.88c16.441,-14.267 29.786,-35.93 61.417,-28.661c31.632,7.268 99.675,-20.396 114.646,-36.851c-47.383,-27.144 -26.974,-29.46 -73.701,-32.756c-46.726,-3.295 -45.102,36.146 -65.511,-45.039c-20.41,-81.184 41.35,-37.337 53.228,-85.984c11.877,-48.647 -134.588,-697.303 -143.307,-814.803c-8.72,-117.501 -40.328,-315.473 -49.134,-323.465c-21.799,-19.784 -30.936,-32.313 -36.85,-40.945c-5.915,-8.632 32.287,-37.016 20.472,-40.945c-11.816,-3.928 -35.327,-11.983 -40.945,-20.472c-5.617,-8.489 31.25,-24.227 -12.283,-45.04c-43.534,-20.812 -248.265,5.892 -237.481,28.662c10.785,22.77 4.378,18.499 -4.094,28.661c-8.472,10.163 11.931,3.076 8.189,8.189c-1.384,1.891 -34.097,27.652 -51.208,101.094c-29.169,125.202 -52.017,342.146 -79.816,476.229c-44.105,212.734 -136.34,610.56 -151.496,716.536c41.681,22.868 94.451,11.292 139.213,-4.095c-19.901,27.505 -28.662,85.984 -28.662,85.984c58.16,18.559 113.238,-3.722 163.78,24.567c50.542,28.289 174.933,72.492 221.102,57.323c46.17,-15.169 43.424,-16.775 32.756,-32.756c44.792,-18.17 143.244,38.834 159.685,24.567Z" style="fill:#b20707;"/><path d="M2350.82,453.56c0,-10.595 -15.97,-19.197 -35.642,-19.197c-19.671,0 -35.642,8.602 -35.642,19.197c-4.097,-9.788 -22.178,-11.687 -40.352,-4.236c-18.174,7.45 -29.603,21.446 -25.506,31.235c-7.57,-7.492 -25.009,-2.398 -38.919,11.368c-13.91,13.767 -19.057,31.026 -11.487,38.518c-9.891,-4.055 -24.032,7.256 -31.56,25.243c-7.528,17.987 -5.61,35.881 4.281,39.936c-10.706,0 -19.397,15.806 -19.397,35.275c-0,19.469 8.691,35.275 19.397,35.275c-9.891,4.054 -11.809,21.949 -4.281,39.936c7.528,17.986 21.669,29.298 31.56,25.243c-7.57,7.492 -2.423,24.751 11.487,38.517c13.91,13.767 31.349,18.861 38.919,11.369c-4.097,9.789 7.332,23.785 25.506,31.235c18.174,7.45 36.255,5.552 40.352,-4.237c-0,10.595 15.971,19.197 35.642,19.197c19.672,0 35.642,-8.602 35.642,-19.197c4.097,9.789 22.178,11.687 40.353,4.237c18.174,-7.45 29.603,-21.446 25.506,-31.235c7.57,7.492 25.009,2.398 38.918,-11.369c13.91,-13.766 19.057,-31.025 11.487,-38.517c9.891,4.055 24.033,-7.257 31.561,-25.243c7.528,-17.987 5.609,-35.882 -4.281,-39.936c10.705,-0 19.397,-15.806 19.397,-35.275c-0,-19.469 -8.692,-35.275 -19.397,-35.275c9.89,-4.055 11.809,-21.949 4.281,-39.936c-7.528,-17.987 -21.67,-29.298 -31.561,-25.243c7.57,-7.492 2.423,-24.751 -11.487,-38.518c-13.909,-13.766 -31.348,-18.86 -38.918,-11.368c4.097,-9.789 -7.332,-23.785 -25.506,-31.235c-18.175,-7.451 -36.256,-5.552 -40.353,4.236Z" style="fill:#2d0b07;"/><path d="M2080.59,457.655c0,-10.595 -15.971,-19.197 -35.642,-19.197c-19.671,-0 -35.642,8.602 -35.642,19.197c-4.097,-9.789 -22.178,-11.687 -40.352,-4.237c-18.174,7.451 -29.603,21.446 -25.507,31.235c-7.569,-7.492 -25.008,-2.398 -38.918,11.369c-13.91,13.766 -19.057,31.025 -11.487,38.517c-9.891,-4.054 -24.033,7.257 -31.56,25.243c-7.528,17.987 -5.61,35.882 4.28,39.937c-10.705,-0 -19.397,15.806 -19.397,35.274c0,19.469 8.692,35.275 19.397,35.275c-9.89,4.055 -11.808,21.949 -4.28,39.936c7.527,17.987 21.669,29.298 31.56,25.243c-7.57,7.492 -2.423,24.751 11.487,38.518c13.91,13.766 31.349,18.86 38.918,11.369c-4.096,9.788 7.333,23.784 25.507,31.234c18.174,7.451 36.255,5.552 40.352,-4.236c-0,10.595 15.971,19.197 35.642,19.197c19.671,-0 35.642,-8.602 35.642,-19.197c4.097,9.788 22.178,11.687 40.352,4.236c18.174,-7.45 29.603,-21.446 25.506,-31.234c7.57,7.491 25.009,2.397 38.919,-11.369c13.91,-13.767 19.057,-31.026 11.487,-38.518c9.891,4.055 24.033,-7.256 31.56,-25.243c7.528,-17.987 5.61,-35.881 -4.28,-39.936c10.705,0 19.397,-15.806 19.397,-35.275c-0,-19.468 -8.692,-35.274 -19.397,-35.274c9.89,-4.055 11.808,-21.95 4.28,-39.937c-7.527,-17.986 -21.669,-29.297 -31.56,-25.243c7.57,-7.492 2.423,-24.751 -11.487,-38.517c-13.91,-13.767 -31.349,-18.861 -38.919,-11.369c4.097,-9.789 -7.332,-23.784 -25.506,-31.235c-18.174,-7.45 -36.255,-5.552 -40.352,4.237Z" style="fill:#2d0b07;"/></g></g></svg>