<?xml version="1.0" encoding="UTF-8" standalone="no"?><!DOCTYPE svg PUBLIC "-//W3C//DTD SVG 1.1//EN" "http://www.w3.org/Graphics/SVG/1.1/DTD/svg11.dtd"><svg width="100%" height="100%" viewBox="0 0 5334 1959" version="1.1" xmlns="http://www.w3.org/2000/svg" xmlns:xlink="http://www.w3.org/1999/xlink" xml:space="preserve" xmlns:serif="http://www.serif.com/" style="fill-rule:evenodd;clip-rule:evenodd;stroke-linejoin:round;stroke-miterlimit:2;"><g><rect x="-0" y="1137.45" width="5337.5" height="820.833" style="fill:url(#_Linear1);"/><clipPath id="_clip2"><rect x="-0" y="1137.45" width="5337.5" height="820.833"/></clipPath><g clip-path="url(#_clip2)"><path d="M3833.37,1586.07l566.255,-59.813l53.087,-408.047l-1532.87,80.675l19.979,14.946l15.331,5.76l-5.715,1.433l-7.782,2.876l14.5,2.217l5.491,3.808l13.055,8.563l11.276,2.145l-7.59,1.496l6.229,4.541l13.214,2.039l-7.222,2.329l-6.399,2.364l12.342,0.839l18.95,14.944l15.207,1.974l-9.557,2.145l-10.595,2.907l17.815,2.356l-4.254,2.974l12.305,2.896l11.354,8.276l12.276,1.356l-8.685,1.262l-12.153,3.29l19.7,2.212l18.745,2.469l-9.107,4.557l13.954,2.579l-7.672,2.001l14.081,10.265l-14.129,5.451l20.915,-0.504l19.973,3.364l-8.872,4.729l9.163,6.679l15.418,6.459l14.826,-1.108l-9.891,3.176l18.582,7.785l-10.315,3.872l20.511,0.4l22.826,-0.376l-13.448,4.305l17.849,7.477l21.726,-0.836l-15.216,3.564l36.473,15.28l-17.816,5.431l26.869,-1.638l19.267,7.734l27.651,1.111l-17.774,3.365l15.309,6.414l26.792,6.08l-11.861,5.208l12.651,9.563l-10.987,6.378l24.16,3.581l13.711,10.366l-14.963,4.946l23.974,1.866l23.377,5.581l-11.331,3.525l11.287,8.533l27.568,5.091l-16.133,3.554l24.163,18.267l23.889,3.706l-17.31,4.275l-26.149,10.354l37.918,3.923l37.767,6l-27.173,7.643l-31.719,8.752l43.211,5.503l6.046,7.499l34.793,4.421l33.781,-2.787l-11.934,5.562l-24.092,2.993l39.925,-0.981l12.455,1.583l10.142,-2.707l-10.743,-2.137l26.433,-2.05l31.603,-0.235l-13.668,-4.552l35.455,-9.462l-26.567,-2.918l44.147,-1.774l19.847,-5.296l23.208,5.516l-23.762,3.863l36.536,-0.827l18.486,4.393l61.193,-2.992l-47.65,6.211l106.086,25.214Z" style="fill:#070809;fill-opacity:0.8;"/><clipPath id="_clip3"><path d="M4332.19,1613.47l-337.214,-4.73l-317.207,10.348l-76.591,13.531l112.129,29.198l44.921,4.016l-26.231,0.851l33.511,8.726l-27.017,5.356l48.354,0.2l14.591,3.8l6.687,1.118l32.587,1.269l-18.3,1.121l25.224,4.219l-38.098,5.46l53.322,-2.914l24.204,-0.823l-5.73,3.913l13.196,-0.922l-0.337,3.072l11.282,1.887l17.005,-1.325l-5.773,3.204l16.553,2.769l-13.689,3.278l26.893,-1.07l19.82,-1.556l-10.361,3.138l23.797,3.98l19.606,0l-8.327,1.887l14.878,2.488l-14.055,2.52l28.828,0.989l15.134,1.493l16.952,0.751l39.543,-1.531l-16.14,2.568l-19.502,2.973l48.984,-1.667l-22.153,5.123l52.901,-3.761l56.01,-3.255l-27.203,4.53l-13.45,3.149l42.986,-1.84l11.633,0.515l131.703,111.321l-5.856,-229.367Z"/></clipPath><g clip-path="url(#_clip3)"><g opacity="0.6"><path d="M4332.19,1613.47l-337.214,-4.73l-317.207,10.348l-76.591,13.531l112.129,29.198l44.921,4.016l-26.231,0.851l33.511,8.726l-27.017,5.356l48.354,0.2l14.591,3.8l6.687,1.118l32.587,1.269l-18.3,1.121l25.224,4.219l-38.098,5.46l53.322,-2.914l24.204,-0.823l-5.73,3.913l13.196,-0.922l-0.337,3.072l11.282,1.887l17.005,-1.325l-5.773,3.204l16.553,2.769l-13.689,3.278l26.893,-1.07l19.82,-1.556l-10.361,3.138l23.797,3.98l19.606,0l-8.327,1.887l14.878,2.488l-14.055,2.52l28.828,0.989l15.134,1.493l16.952,0.751l39.543,-1.531l-16.14,2.568l-19.502,2.973l48.984,-1.667l-22.153,5.123l52.901,-3.761l56.01,-3.255l-27.203,4.53l-13.45,3.149l42.986,-1.84l11.633,0.515l131.703,111.321l-5.856,-229.367Z" style="fill:#040502;"/><clipPath id="_clip4"><path d="M4332.19,1613.47l-337.214,-4.73l-317.207,10.348l-76.591,13.531l112.129,29.198l44.921,4.016l-26.231,0.851l33.511,8.726l-27.017,5.356l48.354,0.2l14.591,3.8l6.687,1.118l32.587,1.269l-18.3,1.121l25.224,4.219l-38.098,5.46l53.322,-2.914l24.204,-0.823l-5.73,3.913l13.196,-0.922l-0.337,3.072l11.282,1.887l17.005,-1.325l-5.773,3.204l16.553,2.769l-13.689,3.278l26.893,-1.07l19.82,-1.556l-10.361,3.138l23.797,3.98l19.606,0l-8.327,1.887l14.878,2.488l-14.055,2.52l28.828,0.989l15.134,1.493l16.952,0.751l39.543,-1.531l-16.14,2.568l-19.502,2.973l48.984,-1.667l-22.153,5.123l52.901,-3.761l56.01,-3.255l-27.203,4.53l-13.45,3.149l42.986,-1.84l11.633,0.515l131.703,111.321l-5.856,-229.367Z"/></clipPath><g clip-path="url(#_clip4)"><path d="M4195.03,1525.93l-1022.92,82.983l979.166,167.242l132.447,20.765c141.265,7.597 97.832,-111.572 157.005,-122.509l158.465,88.978l-267.008,-149.924l-72.255,-25.054c-0,0 259.509,-7.912 414.263,-34.483c154.754,-26.57 -479.167,-27.998 -479.167,-27.998Z" style="fill:#272e16;"/></g></g></g><path d="M884.008,1412.77l-45.521,-186.16l956.969,64.261l-27.683,10.16l4.637,1.357l-10.956,0.962l-6.41,2.353l3.289,1.087l-9.79,1.299l-8.501,3.12l-8.107,0.682l3.491,1.013l-6.859,0.988l1.892,0.835l-5.794,2.126l5.049,0.441l-8.812,0.94l-4.439,1.63l2.447,0.631l-5.885,0.63l-4.811,1.766l-5.596,0.525l3.144,0.375l4.167,0.765l-8.14,0.694l-6.171,2.264l2.442,0.633l-6.581,0.887l-3.763,1.381l-5.311,0.42l3.018,0.421l1.349,1.035l-6.383,0.813l2.096,0.76l-5.936,0.649l-3.054,1.121l-5.259,0.401l2.685,0.544l4.378,0.687l-8.122,0.687l3.222,0.347l-5.91,0.64l-3.393,1.245l-5.316,0.422l2.934,0.453l-4.096,1.503l3.196,0.356l-5.227,0.389l0.474,0.591l-3.022,0.344l-6.037,2.216l-7.982,0.636l5.094,0.424l-6.984,1.034l2.634,0.563l5.509,1.036l-10.224,0.694l0.636,1.296l-4.813,0.237l-5.304,0.418l2.269,0.696l0.526,1.337l-5.662,0.549l-5.08,0.335l2.831,0.49l-4.07,1.494l2.117,0.752l-6.869,0.992l-7.213,2.647l-9.141,0.797l-8.075,-1.924l3.765,2.3l3.212,2.348l-8.154,-1.918l-22.753,1.983l3.413,0.792l-13.697,0.394l-21.618,0.142l4.39,1.07l-12.164,1.06l14.863,2.422l-23.001,-1.713l4.22,2.379l-15.204,-1.987l-13.714,0.489l4.777,0.855l-27.846,2.426l15.238,0.307l-23.276,0.394l-19.928,0.647l5.956,0.57l-14.11,1.23l-8.713,1.37l-15.539,0.478l7.918,0.721l10.461,0.648l-19.734,0.81l-29.903,4.702l8.873,3.964l-34.295,0.034l-30.981,1.923l4.625,2.221l-15.121,2.378l-26.032,0.815l16.791,2.731l-41.542,-0.919l-27.052,-4.304l7.608,3.874l5.618,3.66l-37.5,-4.413l-41.657,-0.985l13.336,3.622l-28.139,0.881l10.348,2.541l-43.329,-1.509l10.275,3.692l-34.242,-4.369l-26.379,-0.744l10.046,2.682l-16.206,0.507l-38.266,1.891l-43.983,-1.453l15.065,2.883l23.325,2.784l-51.505,-1.391l8.283,3.013l-40.623,-1.414l-46.393,2.294Z" style="fill:#040502;fill-opacity:0.7;"/><g><path d="M1795.46,1681.25l37.877,2.083l52.084,22.917l-4.167,10.417l-125,27.083l4.167,10.417l150,-39.584l-58.334,-33.333l-100,-18.75l43.373,18.75Z" style="fill:#5b7a97;"/><path d="M1769,1662.74l122.256,13.447l65.763,25.899l13.322,18.277l-148.246,42.471l-11.239,8.002l165.81,-48.156l-7.915,-22.251l-73.904,-27.509l-126.096,-14.584l0.249,4.404Z" style="fill:#5b7a97;"/><path d="M1875,1681.25l-31.25,-4.167l33.333,8.334l29.167,20.833l14.583,2.083l-45.833,-27.083Z" style="fill:#5b7a97;"/><path d="M1943.75,1718.75l-16.667,0l-39.583,14.583l-56.25,16.667l-16.667,8.333l129.167,-39.583Z" style="fill:#5b7a97;"/><path d="M1862.98,1664.48l20.434,0.682l28.097,7.51l-2.248,3.413l15.735,-0.682l-31.469,-10.923l-53.948,-6.145l23.399,6.145Z" style="fill:#5b7a97;"/><path d="M2035.04,1714.58l29.543,-4.166l31.25,10.416l-29.166,4.167l10.416,3.125l22.917,-6.25l2.083,-3.125l-27.083,-10.417l-27.083,0l-12.877,6.25Z" style="fill:#5b7a97;"/><path d="M2074.62,1710.42l-7.956,-6.25l-12.877,-0.521l-4.167,10.416l2.46,4.688l14.584,2.083l12.5,-2.083l-4.544,-8.333Z" style="fill:#727e8d;"/></g><g><path d="M3656.63,1614.58l-37.877,2.084l-52.083,22.916l4.166,10.417l62.522,13.546l33.312,9.371l35.416,8.333l-62.953,-2.463l-97.463,-30.87l58.333,-33.334l100,-18.75l-43.373,18.75Z" style="fill:#5b7a97;"/><path d="M3576.42,1622.92l-21.211,12.5l-25,8.333l-4.166,10.417l29.188,9.379l35.395,6.246l39.583,13.541l-40.037,-9.361l-57.879,-11.472l-10.8,-7.758l7.113,-16.2l24.52,-7.292l23.294,-8.333Z" style="fill:#5b7a97;"/><path d="M4207.96,1676.04l30.789,-3.111l25.838,5.194l58.878,0.028l-25.544,-6.278l-135.417,-2.083l45.456,6.25Z" style="fill:#5b7a97;"/><path d="M3614.28,1598.89l30.914,-1.406l24.806,-8.9l58.246,-8.601l-24.357,9.93l-133.671,21.779l44.062,-12.802Z" style="fill:#5b7a97;"/><path d="M3724.62,1676.04l30.789,-3.111l25.838,5.194l58.877,0.028l-25.544,-6.278l-135.416,-2.083l45.456,6.25Z" style="fill:#5b7a97;"/></g><path d="M4079.17,1697.92l12.5,-12.5l10.416,2.083l2.084,10.417l-10.417,2.083l-14.583,-2.083Z" style="fill:#727e8d;"/><g><path d="M4075,1692.71l-12.5,5.209l4.167,4.166l10.416,2.084l-8.333,-4.167l6.25,-7.292Z" style="fill:#5b7a97;"/><path d="M4104.17,1704.17l12.5,-4.167l-2.084,-4.167l-10.416,0l8.333,-3.125l8.333,3.125l0,8.334l-16.666,-0Z" style="fill:#5b7a97;"/><path d="M4085.42,1702.08l10.416,2.084l-6.25,2.083l-4.166,-4.167Z" style="fill:#5b7a97;"/></g></g><path d="M3983.84,1.996l125.349,124.087l91.659,21.081l99.773,111.321l108.898,83.179l240.597,196.17l172.421,779.588l-371.913,70.992l-345.417,-28.829l-228.404,-60.262l-281.093,-42.831l-375.837,6.612l-300.04,-64.432l194.04,-324.313l172.846,-166.026l122.409,-212.166l46.48,-132.186l84.928,-24.739l116.649,71.374l174.097,-94.869l33.765,-103.737l43.815,-153.994l74.978,-56.02Z" style="fill:url(#_Linear5);"/><clipPath id="_clip6"><path d="M3983.84,1.996l125.349,124.087l91.659,21.081l99.773,111.321l108.898,83.179l240.597,196.17l172.421,779.588l-371.913,70.992l-345.417,-28.829l-228.404,-60.262l-281.093,-42.831l-375.837,6.612l-300.04,-64.432l194.04,-324.313l172.846,-166.026l122.409,-212.166l46.48,-132.186l84.928,-24.739l116.649,71.374l174.097,-94.869l33.765,-103.737l43.815,-153.994l74.978,-56.02Z"/></clipPath><g clip-path="url(#_clip6)"><path d="M3983.84,1.996l114.074,181.337l8.333,143.75l195.833,125l-147.916,22.917l-22.917,116.667l193.75,175l160.417,35.416l-195.834,206.25l14.8,222.767l-65.678,194.914l104.668,109.403l835.794,-941.667l-1097.92,-752.083l-97.407,160.329Z" style="fill:#0a0c0f;fill-opacity:0.5;"/><path d="M3540.54,339.242l69.878,108.675l-0,52.083l37.5,56.25l133.333,54.167l29.167,84.788l-50,92.295l137.5,-92.295l-26.729,-80.622l-37.855,-112.5l56.25,-101.362l14.584,-84.054l-68.75,18.75l-39.584,65.304l-87.5,27.404l-51.145,-17.509l-116.649,-71.374Z" style="fill:#0a0c0f;fill-opacity:0.5;"/><path d="M2919.84,1198.67l84.331,-477.839l520.833,-460.416l458.843,-258.421l-67.176,64.671l-62.5,250l-184.434,98.244l-12.545,-4.295l-78.021,-93.949l-38.628,22.575l-71.789,37.841l-39.583,137.5l-83.334,204.167l-195.833,155.609l-12.5,102.724l-104.167,75l-90.745,151.475l-22.752,-4.886Z" style="fill:#ede8e2;fill-opacity:0.3;"/></g><path d="M685.659,1109.79l152.828,281.83l281.093,-42.83l375.836,6.611l300.04,-64.432l-194.039,-98.628l-172.847,-22.156l-122.409,-28.313l-248.056,-11.417l-174.097,-12.66l-198.349,-8.005Z" style="fill:url(#_Linear7);"/><rect x="0" y="197.917" width="5333.33" height="1385.42" style="fill:url(#_Linear8);"/></g><defs><linearGradient id="_Linear1" x1="0" y1="0" x2="1" y2="0" gradientUnits="userSpaceOnUse" gradientTransform="matrix(-9.31086e-13,-820.833,2985.24,1.99681e-11,2668.75,1958.28)"><stop offset="0" style="stop-color:#17313b;stop-opacity:1"/><stop offset="0.5" style="stop-color:#142f3b;stop-opacity:1"/><stop offset="1" style="stop-color:#0c2a3a;stop-opacity:1"/></linearGradient><linearGradient id="_Linear5" x1="0" y1="0" x2="1" y2="0" gradientUnits="userSpaceOnUse" gradientTransform="matrix(1004.94,271.804,-271.804,1004.94,3286.72,708.333)"><stop offset="0" style="stop-color:#383d40;stop-opacity:1"/><stop offset="0" style="stop-color:#383d40;stop-opacity:1"/><stop offset="1" style="stop-color:#040505;stop-opacity:1"/></linearGradient><linearGradient id="_Linear7" x1="0" y1="0" x2="1" y2="0" gradientUnits="userSpaceOnUse" gradientTransform="matrix(-28.9379,292.463,57.014,5.64127,1058.1,1130.45)"><stop offset="0" style="stop-color:#3d470b;stop-opacity:1"/><stop offset="1" style="stop-color:#070803;stop-opacity:1"/></linearGradient><linearGradient id="_Linear8" x1="0" y1="0" x2="1" y2="0" gradientUnits="userSpaceOnUse" gradientTransform="matrix(1.01433e-12,-1236,1395.26,1.5325e-12,2666.67,1583.33)"><stop offset="0" style="stop-color:#e4eaeb;stop-opacity:0"/><stop offset="0.18" style="stop-color:#f7f9f9;stop-opacity:0.13"/><stop offset="0.5" style="stop-color:#fafbfb;stop-opacity:0.15"/><stop offset="0.75" style="stop-color:#f8f9f9;stop-opacity:0.11"/><stop offset="1" style="stop-color:#f1f3f3;stop-opacity:0"/></linearGradient></defs></svg>